<svg width="28" height="28" viewBox="0 0 28 28" fill="none" xmlns="http://www.w3.org/2000/svg">
<path fill-rule="evenodd" clip-rule="evenodd" d="M12.8631 1.41944V1.83887L12.308 1.87589C11.6952 1.91675 11.0963 2.01062 10.5192 2.15632C9.05019 2.52715 7.74926 3.24143 6.85171 4.16995C6.48182 4.55258 6.22859 4.90035 6.0494 5.27176C5.78464 5.82044 5.7189 6.097 5.69463 6.76426C5.67915 7.18978 5.68557 7.29682 5.74558 7.61597C5.78336 7.81673 5.85381 8.10418 5.90217 8.25475C6.01208 8.59705 6.29764 9.18497 6.5033 9.49247L6.65971 9.72633L6.81043 9.63264L6.96119 9.53892L6.82878 9.35313C6.36173 8.69758 6.06543 7.83976 6.02914 7.03802C6.00897 6.59273 6.04103 6.32085 6.15994 5.92852C6.61773 4.41798 8.4136 3.0351 10.6234 2.49147C11.3019 2.32456 12.2261 2.19675 12.8254 2.18695C12.8558 2.18643 12.8621 2.50187 12.8558 3.71483L12.8479 5.24335L12.5236 5.26345C12.1378 5.28736 11.9444 5.32313 11.5467 5.44411C10.9517 5.62516 10.5491 5.85454 10.1203 6.257C9.57509 6.76864 9.23775 7.36852 9.09141 8.08675C8.92739 8.89159 9.00703 9.76998 9.31252 10.526L9.41907 10.7897L9.25755 11.1119C8.93125 11.7628 8.82041 12.2323 8.79744 13.0608C8.78862 13.3787 8.79428 13.7175 8.81004 13.8137C8.82579 13.9099 8.83522 13.9886 8.83097 13.9886C8.81761 13.9886 8.63373 13.5881 8.5377 13.3498C8.3155 12.7986 8.07614 11.9023 7.96313 11.1983C7.88198 10.6926 7.85162 9.64295 7.90348 9.13527C8.02619 7.93366 8.41974 6.98552 9.0685 6.3284C9.31525 6.07848 9.54838 5.92636 10.1255 5.63875C10.6715 5.3666 10.8902 5.21913 11.1465 4.95024C11.6955 4.37408 12.0232 3.55684 12.1424 2.46637C12.1514 2.3843 12.1446 2.36998 12.1052 2.38716C11.9418 2.45825 11.5191 2.56055 11.1056 2.62908C10.5221 2.72581 10.2229 2.79909 9.91991 2.91945C9.03316 3.27173 8.38211 3.943 8.0348 4.86312C7.78981 5.51224 7.74488 6.44697 7.92402 7.16867C7.97144 7.3597 7.97132 7.36079 7.87921 7.62494C7.68328 8.18674 7.58266 8.72724 7.54345 9.4289C7.48502 10.4734 7.61493 11.5653 7.92429 12.6298C8.46512 14.4908 9.58865 16.0653 10.969 16.8965C11.1663 17.0153 11.1665 17.0152 10.8063 16.9545C8.79897 16.6167 6.51215 15.0113 5.15154 12.9848C4.59583 12.1571 4.22433 11.1961 4.22433 10.5863V10.4468L4.32919 10.6144C4.56307 10.9883 5.02011 11.1714 5.4285 11.0547C6.12791 10.8548 6.43449 10.0861 6.05125 9.4932C5.82357 9.14093 5.52998 8.98485 5.13627 9.00678C4.83714 9.02348 4.62805 9.11979 4.37451 9.35766C4.01062 9.69913 3.88973 9.99769 3.88973 10.555C3.88973 11.1333 4.02513 11.63 4.37554 12.3371C5.32602 14.2552 7.35419 16.1096 9.37326 16.9066C10.3216 17.281 10.9716 17.3945 12.1711 17.3952C12.4346 17.3953 12.6499 17.4057 12.6497 17.4183C12.6487 17.4611 12.2606 17.6724 11.8849 17.8346C10.1181 18.5971 8.29962 18.6972 6.59084 18.1259C5.66847 17.8175 4.59133 17.2025 3.80052 16.5328C3.44709 16.2335 2.86735 15.6466 2.7029 15.4217C2.263 14.8199 2.19513 14.5953 2.13907 13.5551L2.11814 13.1673H2.69615H3.27416L3.38716 13.4335C4.01186 14.9049 5.17579 16.3249 6.41786 17.1311C6.6772 17.2994 6.96715 17.4563 7.01895 17.4563C7.0403 17.4563 7.14449 17.2138 7.14449 17.1641C7.14449 17.16 7.06579 17.112 6.96958 17.0576C5.62382 16.2964 4.4883 15.0016 3.75571 13.3928C3.24697 12.2757 3.01904 11.3838 2.98671 10.384C2.96879 9.82969 2.99151 9.53314 3.088 9.06172C3.26567 8.1937 3.79014 7.24538 4.67389 6.19428L4.91595 5.9064L4.79066 5.79808C4.64064 5.66835 4.66631 5.65299 4.30452 6.08943C3.71185 6.80441 3.20934 7.61743 2.84861 8.44493C2.23884 9.84371 1.91799 11.1054 1.80429 12.5513L1.78455 12.8023H1.39227H1V12.9848V13.1673H1.3909H1.78181L1.80271 13.6008C1.89554 15.5262 2.41484 17.2812 3.27948 18.5916C3.75632 19.3143 4.1934 19.7231 4.82865 20.0407C5.05487 20.1538 5.65019 20.3563 5.91255 20.4094L6.09506 20.4464L6.29278 20.7377C7.42878 22.4116 9.04231 23.493 11.0578 23.9313C11.6024 24.0497 11.899 24.0893 12.4221 24.1135L12.8479 24.1331L12.8563 24.5665L12.8648 25H13.0312H13.1977V24.5589V24.1179H13.4074C14.2089 24.1179 15.496 23.8646 16.4525 23.5188C17.7888 23.0356 19.2243 22.0421 20.0376 21.0377C20.3399 20.6644 20.7273 20.0702 20.89 19.7303C21.2257 19.0291 21.3463 18.536 21.3681 17.7757C21.3779 17.4333 21.3696 17.1712 21.3435 17L21.3042 16.7414L21.1521 16.7521C21.0684 16.7579 20.9953 16.7672 20.9894 16.7728C20.9836 16.7783 20.9958 16.9065 21.0164 17.0576C21.0635 17.4018 21.0382 18.1448 20.9688 18.4601C20.8955 18.793 20.7557 19.2134 20.6334 19.4687C20.5746 19.5915 20.5341 19.666 20.5435 19.6342C20.5896 19.4777 20.6236 18.9241 20.6062 18.6122C20.5571 17.732 20.3318 17.0984 19.73 16.1483C19.587 15.9224 19.4246 15.6452 19.3692 15.5323C19.3137 15.4194 19.257 15.327 19.2432 15.327C19.2294 15.327 19.1662 15.3535 19.1027 15.3859L18.9873 15.4448L19.0413 15.652C19.113 15.9269 19.1181 16.5781 19.051 16.8688C18.9028 17.5102 18.5969 17.968 17.943 18.5271C17.44 18.9573 17.0283 19.3707 16.8025 19.6726C16.6104 19.9295 16.4651 20.2037 15.865 21.4411C15.4335 22.331 14.9453 22.9601 14.2513 23.5209L13.9734 23.7453L13.5856 23.7666L13.1977 23.7879V22.2389V20.6899L13.5205 20.6701C14.167 20.6305 14.9207 20.4287 15.4903 20.1426C16.2096 19.7814 16.8749 19.1925 17.3668 18.4815C17.6036 18.1393 17.9761 17.406 18.1405 16.9586C18.677 15.4981 18.7881 13.7462 18.4424 12.1999C18.3986 12.0042 18.3594 11.8405 18.3552 11.836C18.3384 11.8182 18.0342 11.9018 18.0342 11.9242C18.0342 11.9374 18.0623 12.0685 18.0966 12.2155C18.2377 12.8201 18.2864 13.2711 18.2885 13.9886C18.2905 14.7179 18.2604 15.0541 18.1389 15.6616C17.7898 17.4069 16.8925 18.8717 15.7081 19.6293C15.1969 19.9564 14.5102 20.1908 13.7452 20.2995C13.5696 20.3245 13.3745 20.3452 13.3118 20.3455L13.1977 20.346V20.0932V19.8403L13.4487 19.5984C13.5867 19.4653 14.1787 18.8912 14.7643 18.3227C15.35 17.7542 16.0238 17.1019 16.2618 16.8732L16.6946 16.4575L16.5963 16.335C16.5423 16.2676 16.4889 16.2152 16.4777 16.2184C16.4216 16.2346 14.6216 17.952 13.6008 18.9631L13.1977 19.3623V18.4281V17.4938L13.403 17.4729C14.3109 17.3808 15.2014 16.94 15.922 16.2261C16.6329 15.5219 17.0683 14.7017 17.2632 13.6996C17.3367 13.3221 17.3376 12.5494 17.2649 12.1884C16.9743 10.7445 16.0382 9.77518 14.8696 9.70814C14.3281 9.67705 13.8116 9.84408 13.3878 10.1872L13.1977 10.3412V9.48806V8.63498H13.6425C15.7674 8.63498 17.9549 9.86552 19.5908 11.981C19.9508 12.4464 20.2824 13.0029 20.4912 13.4914L20.5582 13.6483L20.7006 13.6054C20.7789 13.5818 20.8481 13.5575 20.8543 13.5513C20.8771 13.5285 20.7035 13.113 20.5541 12.8327C20.2874 12.3322 19.9087 11.7834 19.5319 11.3509C19.3745 11.1704 19.3686 11.1575 19.3996 11.062C19.4611 10.8722 19.5307 10.3523 19.5505 9.93478L19.5703 9.51599L19.9049 9.767C20.4961 10.2105 21.1834 10.9248 21.6638 11.595C22.4455 12.6853 23.0117 14.0223 23.1456 15.0935C23.1992 15.5219 23.1678 16.379 23.0841 16.7719C22.8979 17.6468 22.4193 18.5773 21.6499 19.5603L21.4435 19.824L21.564 19.9329C21.6304 19.9928 21.6948 20.0411 21.7073 20.0402C21.7573 20.0365 22.3222 19.2635 22.562 18.8707C23.1306 17.9394 23.5583 16.8776 23.8853 15.5856C24.0982 14.7443 24.2395 13.8614 24.2395 13.3728V13.1673H24.6198H25V12.9857V12.8042L24.6274 12.7956L24.2548 12.7871L24.2356 12.4355C24.2108 11.9807 24.1677 11.6526 24.0543 11.0532C23.8065 9.74443 23.5216 8.86552 23.0292 7.89071C22.4544 6.75294 21.821 6.05935 20.9626 5.62774C20.6648 5.47799 20.2006 5.29192 19.9017 5.20246C19.7099 5.1451 19.6758 5.1231 19.6002 5.00803C19.2551 4.48325 18.5171 3.70838 17.9914 3.31894C16.8264 2.45585 15.2904 1.94315 13.6312 1.86345L13.1977 1.84265V1.42132V1H13.0304H12.8631V1.41944ZM13.8973 2.23306C14.073 2.24283 14.4189 2.28493 14.666 2.32663C16.4671 2.63042 17.8829 3.42117 18.9589 4.72438C19.0686 4.85722 19.1548 4.9694 19.1505 4.97372C19.1462 4.97804 19.0267 4.94756 18.885 4.90598C18.077 4.66887 17.0707 4.64179 16.2852 4.83605C15.953 4.91817 15.5972 5.03632 15.3422 5.14914L15.1293 5.24335L14.1635 5.23346L13.1977 5.22354V4.57335V3.92313L13.3878 3.81813C13.6369 3.68058 14.116 3.50427 14.4426 3.42999C14.8 3.34868 15.3501 3.32368 15.7264 3.37165C15.8931 3.39288 16.0348 3.40496 16.0413 3.39851C16.0478 3.39203 16.0623 3.31723 16.0736 3.2323L16.0941 3.07784L15.8702 3.04356C15.4572 2.98023 15.2225 2.97141 14.9011 3.00712C14.288 3.07522 13.8601 3.20544 13.2205 3.5186C13.208 3.52474 13.1977 3.22713 13.1977 2.85719V2.18461L13.3878 2.19994C13.4924 2.20836 13.7217 2.22327 13.8973 2.23306ZM18.2924 5.12079C18.6504 5.19884 18.8753 5.28715 19.1153 5.44383C19.611 5.76742 19.9137 6.18236 20.2262 6.96657C20.3712 7.33065 20.532 7.61606 20.7269 7.85527C20.8036 7.94951 20.8607 8.02662 20.8538 8.02662C20.8468 8.02662 20.7481 7.98446 20.6345 7.93293C20.4652 7.85615 19.9183 7.6616 19.8718 7.6616C19.8649 7.6616 19.8597 7.74716 19.8602 7.85171L19.8612 8.04182L20.2228 8.15848C20.7072 8.31477 21.4527 8.68715 21.9731 9.03282C22.291 9.24398 22.484 9.40058 22.7362 9.65205C23.5117 10.4253 23.8282 11.1766 23.8927 12.3971L23.9136 12.7929L23.8232 12.811C23.7736 12.821 23.5233 12.8226 23.267 12.8146L22.801 12.8001L22.604 12.4438C22.1592 11.6392 21.6894 10.9928 21.096 10.3688C20.6484 9.89822 20.436 9.71897 19.6586 9.15611C19.5371 9.06814 19.5334 9.06023 19.5132 8.8428C19.4862 8.55087 19.3598 7.99164 19.2469 7.664C19.1087 7.263 18.7876 6.64055 18.5706 6.35276C18.328 6.03115 17.9988 5.71595 17.6996 5.51878C17.4808 5.37457 16.9956 5.13834 16.9163 5.13734C16.8955 5.13709 16.8783 5.12392 16.8783 5.10805C16.8783 5.03595 17.9474 5.0456 18.2924 5.12079ZM16.9052 5.51775C17.6398 5.76599 18.2413 6.33773 18.6686 7.19401C19.0314 7.92109 19.2205 8.7736 19.2205 9.68228C19.2205 9.98348 19.1502 10.7046 19.1109 10.8072C19.0948 10.849 19.027 10.7968 18.7679 10.5428C17.9474 9.73889 16.8558 9.03787 15.8745 8.68484C15.4144 8.51927 14.6953 8.33795 14.3404 8.29804C13.8617 8.24417 13.8611 8.24006 14.309 8.06455C14.7815 7.87939 15.4419 7.70954 15.9468 7.64322C16.4611 7.5757 17.5784 7.59994 18.0332 7.68846C18.3954 7.759 18.4044 7.75526 18.392 7.5405L18.384 7.40417L18.2167 7.36712C18.1247 7.34671 17.8442 7.30695 17.5933 7.27875C16.5431 7.16064 15.2741 7.31614 14.2928 7.68313C13.9843 7.79851 13.381 8.08292 13.2638 8.16815L13.193 8.21968L13.2141 8.10035C13.2764 7.74914 13.5518 7.16812 13.8572 6.744C14.2191 6.2414 14.7808 5.79097 15.3086 5.5802C15.632 5.45104 15.8749 5.41174 16.2852 5.42221C16.5897 5.42999 16.6924 5.44581 16.9052 5.51775ZM13.2899 5.62187C13.2439 5.7078 13.1977 5.72733 13.1977 5.66087C13.1977 5.59273 13.2228 5.56274 13.2799 5.56274C13.3117 5.56274 13.3141 5.5767 13.2899 5.62187ZM14.5046 5.58555C14.504 5.59811 14.4527 5.64678 14.3905 5.69375C14.0113 5.98038 13.5552 6.50619 13.3299 6.91635L13.2129 7.12928L13.2038 6.65779L13.1947 6.18631L13.4994 5.89089L13.8041 5.59547L14.0865 5.5854C14.2418 5.57989 14.3996 5.57253 14.4373 5.56906C14.4749 5.56557 14.5052 5.57299 14.5046 5.58555ZM12.8631 5.76371V5.93427L11.3187 7.50516C10.4693 8.36916 9.6842 9.17053 9.57411 9.28602L9.37393 9.496L9.35328 9.17956C9.26652 7.85074 9.90144 6.63398 10.9872 6.04833C11.4775 5.78385 12.1359 5.61071 12.7034 5.59702L12.8631 5.59316V5.76371ZM12.8631 7.38725V8.29922L12.7947 8.31477C12.757 8.32332 12.6185 8.35185 12.4868 8.37819C11.5508 8.56526 10.5636 9.23087 9.85719 10.1511C9.72633 10.3216 9.63303 10.4189 9.62403 10.3945C9.54686 10.1845 9.48669 9.98412 9.48669 9.93725C9.48669 9.90537 9.65293 9.7096 9.86363 9.49335C11.898 7.40538 12.815 6.4758 12.8403 6.47553C12.8529 6.47541 12.8631 6.88566 12.8631 7.38725ZM4.39574 7.75507C4.19504 7.91291 4.39164 8.22227 4.63361 8.1294C4.68687 8.10896 4.77186 7.96508 4.77186 7.89539C4.77186 7.82829 4.61895 7.69201 4.54367 7.69201C4.5064 7.69201 4.43982 7.72039 4.39574 7.75507ZM12.8628 9.95057C12.8625 10.9602 12.8536 11.238 12.8175 11.3726C12.7606 11.5844 12.7606 12.0572 12.8175 12.3156C12.8797 12.5983 12.8809 13.5323 12.8191 13.5323C12.7211 13.5323 12.2557 13.3666 12.0391 13.2546C11.157 12.7983 10.5905 11.7943 10.6524 10.7966C10.7052 9.94619 11.1089 9.35796 11.8962 8.98403C12.13 8.87306 12.6709 8.70053 12.7947 8.69749L12.8631 8.69582L12.8628 9.95057ZM2.64259 10.4129C2.64259 10.9468 2.79252 11.7833 3.00648 12.443C3.10604 12.7501 3.11528 12.8012 3.07413 12.8169C3.04794 12.827 2.82303 12.8257 2.57436 12.8142L2.12225 12.7931L2.13819 12.638C2.14695 12.5527 2.16249 12.3734 2.17275 12.2395C2.20167 11.8609 2.32681 11.1636 2.44767 10.7075C2.50811 10.4794 2.56459 10.262 2.5732 10.2243C2.60748 10.0744 2.64259 10.1698 2.64259 10.4129ZM10.3643 10.2983C10.3355 10.3797 10.3237 10.5736 10.3249 10.9468C10.3265 11.4359 10.3334 11.5008 10.4087 11.7462C10.7284 12.7869 11.5341 13.5744 12.523 13.8127C12.6683 13.8476 12.8042 13.8806 12.8251 13.8858C12.8537 13.893 12.8631 14.0277 12.8631 14.43V14.9645L12.7186 14.8817C12.2684 14.6237 11.7683 14.194 11.3995 13.7484L11.2637 13.5842L11.1512 13.6572C11.0894 13.6972 11.0386 13.7444 11.0384 13.762C11.0376 13.8316 11.3355 14.2016 11.6139 14.4768C11.9188 14.7783 12.3158 15.0659 12.6621 15.2364L12.8631 15.3354V16.1981C12.8631 16.9995 12.8593 17.0608 12.8099 17.0607C12.6752 17.0604 12.1536 16.9602 11.9202 16.8897C11.016 16.6168 10.0569 15.7915 9.60909 14.9011C8.99449 13.6791 9.02859 12.3465 9.7064 11.0989C9.90935 10.7253 10.3495 10.1264 10.3908 10.1677C10.3988 10.1757 10.3868 10.2345 10.3643 10.2983ZM6.94564 11.709C6.93986 11.7184 6.92621 11.8621 6.91529 12.0284C6.86805 12.7469 7.08 13.7326 7.42181 14.384C7.61396 14.7502 7.60532 14.7433 7.77049 14.6631C7.84697 14.6259 7.90497 14.5856 7.89938 14.5734C7.89381 14.5613 7.81862 14.4076 7.73229 14.2319C7.54589 13.8526 7.43708 13.5409 7.35678 13.1564C7.27818 12.78 7.23361 12.2462 7.25627 11.9524L7.27468 11.7137L7.11541 11.7028C7.02783 11.6969 6.95142 11.6997 6.94564 11.709ZM16.9132 12.557C16.9735 12.9814 16.9088 13.4956 16.7445 13.8973C16.5048 14.4836 15.9357 15.0134 15.325 15.2191C14.9654 15.3403 14.5004 15.3608 14.146 15.2711C13.8161 15.1877 13.5435 15.0544 13.3531 14.8831L13.1977 14.7434V13.9706C13.1977 13.5455 13.2054 13.1977 13.2149 13.1977C13.2244 13.1977 13.2962 13.2635 13.3746 13.344C13.5441 13.5179 13.867 13.7145 14.1407 13.8104C14.4247 13.9099 15.0046 13.912 15.3118 13.8147C15.6175 13.7178 15.8885 13.5487 16.1329 13.3021C16.4861 12.9459 16.6821 12.54 16.7195 12.0875L16.7371 11.8745L16.8088 12.1007C16.8482 12.2252 16.8952 12.4305 16.9132 12.557ZM23.9049 13.3735C23.9049 13.8121 23.7381 14.8462 23.5922 15.3118L23.5254 15.5247L23.517 15.3878C23.4772 14.7391 23.2914 13.9932 22.9771 13.2205C22.957 13.1712 22.9901 13.1673 23.4302 13.1673H23.9049V13.3735ZM21.0683 14.2025C20.8771 14.2503 20.6508 14.3811 20.5119 14.5239C20.3311 14.7101 20.2479 14.9381 20.2466 15.2515C20.2454 15.5555 20.3112 15.718 20.5291 15.9483C20.8709 16.3097 21.3527 16.389 21.7849 16.1551C22.3355 15.857 22.4951 15.0874 22.1077 14.5973C21.9736 14.4277 21.7657 14.2796 21.5942 14.2314C21.4255 14.184 21.1932 14.1713 21.0683 14.2025ZM15.9635 15.5638C15.5214 16.1565 14.8057 16.6774 14.116 16.9084C13.856 16.9955 13.2717 17.1016 13.2205 17.0709C13.208 17.0634 13.1977 16.6732 13.1977 16.2038C13.1977 15.4048 13.2011 15.3514 13.2509 15.3672C13.2802 15.3765 13.4329 15.434 13.5903 15.4948C13.7476 15.5557 13.9781 15.625 14.1024 15.6488C14.3966 15.705 14.9616 15.7041 15.2339 15.6468C15.4559 15.6001 15.9883 15.4074 16.0414 15.3546C16.0611 15.335 16.0752 15.336 16.0823 15.3573C16.0883 15.3752 16.0348 15.4681 15.9635 15.5638ZM19.5446 16.5303C19.6889 16.8453 19.6721 17.1692 19.4908 17.5733C19.3638 17.8564 19.1626 18.1215 18.7424 18.5595C18.3036 19.0168 18.0784 19.3068 17.9334 19.6008C17.6822 20.1102 17.6388 20.3617 17.6388 21.3049C17.6388 22.0271 17.6126 22.3001 17.52 22.5437C17.483 22.641 17.0399 22.8743 16.4257 23.1199C15.9508 23.3098 15.7854 23.3634 15.2662 23.4956C14.6951 23.641 14.6273 23.6557 14.6281 23.6346C14.6285 23.6243 14.6845 23.5749 14.7526 23.5247C14.9309 23.3932 15.3233 22.9771 15.5208 22.7101C15.7981 22.3351 16.0481 21.8968 16.3195 21.3096C16.9372 19.9731 17.1546 19.6689 18.017 18.933C18.6542 18.3893 18.9479 18.0478 19.1563 17.6084C19.3062 17.2922 19.3996 16.945 19.4241 16.6122C19.4342 16.4741 19.4481 16.3612 19.4549 16.3612C19.4617 16.3612 19.5021 16.4373 19.5446 16.5303ZM9.14242 17.4573C8.98251 17.5831 9.06196 17.8213 9.26385 17.8213C9.37874 17.8213 9.45627 17.7385 9.45627 17.6158C9.45627 17.5268 9.39176 17.4259 9.3349 17.4259C9.32076 17.4259 9.29001 17.4185 9.26659 17.4095C9.24316 17.4005 9.18729 17.4221 9.14242 17.4573ZM4.97478 17.7812C5.86275 18.2945 6.81567 18.6313 7.81369 18.7847C8.28109 18.8565 9.35893 18.8566 9.83057 18.7849C10.8313 18.6326 11.8019 18.315 12.5903 17.8816C12.7115 17.815 12.8241 17.7605 12.8405 17.7605C12.858 17.7605 12.8652 17.84 12.8578 17.9547C12.8468 18.1274 12.8312 18.1674 12.7169 18.3156C12.1267 19.0806 11.386 19.6976 10.6805 20.0118C10.0652 20.2858 9.56757 20.3998 8.86312 20.428C8.06366 20.46 7.49381 20.3558 6.91635 20.0718C6.26038 19.7493 5.90625 19.4053 5.31982 18.5209C5.14786 18.2616 4.9259 17.9502 4.82659 17.8289C4.72724 17.7076 4.65268 17.6084 4.6609 17.6084C4.66908 17.6084 4.81034 17.6861 4.97478 17.7812ZM12.8636 19.1673L12.8641 19.5703L12.5366 19.8858C12.3565 20.0593 12.1605 20.2373 12.1011 20.2812L11.993 20.3612L11.3958 20.3524L10.7985 20.3435L11.1002 20.1851C11.5682 19.9392 11.9259 19.6691 12.4063 19.1988C12.6492 18.9609 12.8513 18.7658 12.8555 18.7653C12.8597 18.7647 12.8633 18.9456 12.8636 19.1673ZM12.8631 20.2261V20.346H12.7117H12.5604L12.6889 20.2144C12.7596 20.1419 12.8277 20.088 12.8403 20.0945C12.8529 20.101 12.8631 20.1602 12.8631 20.2261ZM6.85551 20.5867C7.19708 20.6609 7.78811 20.7437 8.10266 20.7614C8.28669 20.7717 8.46093 20.7923 8.48982 20.8071C8.51872 20.822 8.63507 20.9045 8.74838 20.9904C9.03988 21.2116 9.66208 21.5068 10.0736 21.6193C10.3724 21.701 11.0611 21.8237 11.085 21.7996C11.0897 21.7948 11.0976 21.716 11.1024 21.6244L11.1112 21.4579L10.8244 21.4195C10.2822 21.3469 9.69731 21.156 9.25518 20.9073L9.04563 20.7895L9.47148 20.7326C9.7057 20.7013 9.94525 20.6758 10.0038 20.6759C10.0624 20.676 10.692 20.6845 11.403 20.6948C12.1141 20.7051 12.7335 20.713 12.7795 20.7123L12.8631 20.711V22.2518V23.7926L12.4601 23.7734C11.4959 23.7274 10.4361 23.4732 9.55881 23.0775C8.46391 22.5836 7.46294 21.7675 6.76405 20.7989C6.58291 20.5478 6.56931 20.5168 6.65019 20.539C6.67945 20.547 6.77186 20.5685 6.85551 20.5867Z" fill="#A3A87C" stroke="#A3A87C" stroke-width="0.5" stroke-linejoin="round"/>
<path d="M22.476 12.8535C23.6708 12.8535 24.6394 13.8221 24.6394 15.0169V15.0169C24.6394 16.2117 23.6708 17.1803 22.476 17.1803L5.59715 17.1803L5.59715 12.8535L22.476 12.8535Z" fill="#262A19"/>
<rect x="5.59717" y="5.41687" width="3.60563" height="14.9859" rx="1.80282" fill="#F4F4F4"/>
<path opacity="0.35" fill-rule="evenodd" clip-rule="evenodd" d="M12.8631 1.41944V1.83887L12.308 1.87589C11.6952 1.91675 11.0963 2.01062 10.5192 2.15632C9.05019 2.52715 7.74926 3.24143 6.85171 4.16995C6.48182 4.55258 6.22859 4.90035 6.0494 5.27176C5.78464 5.82044 5.7189 6.097 5.69463 6.76426C5.67915 7.18978 5.68557 7.29682 5.74558 7.61597C5.78336 7.81673 5.85381 8.10418 5.90217 8.25475C6.01208 8.59705 6.29764 9.18497 6.5033 9.49247L6.65971 9.72633L6.81043 9.63264L6.96119 9.53892L6.82878 9.35313C6.36173 8.69758 6.06543 7.83976 6.02914 7.03802C6.00897 6.59273 6.04103 6.32085 6.15994 5.92852C6.61773 4.41798 8.4136 3.0351 10.6234 2.49147C11.3019 2.32456 12.2261 2.19675 12.8254 2.18695C12.8558 2.18643 12.8621 2.50187 12.8558 3.71483L12.8479 5.24335L12.5236 5.26345C12.1378 5.28736 11.9444 5.32313 11.5467 5.44411C10.9517 5.62516 10.5491 5.85454 10.1203 6.257C9.57509 6.76864 9.23775 7.36852 9.09141 8.08675C8.92739 8.89159 9.00703 9.76998 9.31252 10.526L9.41907 10.7897L9.25755 11.1119C8.93125 11.7628 8.82041 12.2323 8.79744 13.0608C8.78862 13.3787 8.79428 13.7175 8.81004 13.8137C8.82579 13.9099 8.83522 13.9886 8.83097 13.9886C8.81761 13.9886 8.63373 13.5881 8.5377 13.3498C8.3155 12.7986 8.07614 11.9023 7.96313 11.1983C7.88198 10.6926 7.85162 9.64295 7.90348 9.13527C8.02619 7.93366 8.41974 6.98552 9.0685 6.3284C9.31525 6.07848 9.54838 5.92636 10.1255 5.63875C10.6715 5.3666 10.8902 5.21913 11.1465 4.95024C11.6955 4.37408 12.0232 3.55684 12.1424 2.46637C12.1514 2.3843 12.1446 2.36998 12.1052 2.38716C11.9418 2.45825 11.5191 2.56055 11.1056 2.62908C10.5221 2.72581 10.2229 2.79909 9.91991 2.91945C9.03316 3.27173 8.38211 3.943 8.0348 4.86312C7.78981 5.51224 7.74488 6.44697 7.92402 7.16867C7.97144 7.3597 7.97132 7.36079 7.87921 7.62494C7.68328 8.18674 7.58266 8.72724 7.54345 9.4289C7.48502 10.4734 7.61493 11.5653 7.92429 12.6298C8.46512 14.4908 9.58865 16.0653 10.969 16.8965C11.1663 17.0153 11.1665 17.0152 10.8063 16.9545C8.79897 16.6167 6.51215 15.0113 5.15154 12.9848C4.59583 12.1571 4.22433 11.1961 4.22433 10.5863V10.4468L4.32919 10.6144C4.56307 10.9883 5.02011 11.1714 5.4285 11.0547C6.12791 10.8548 6.43449 10.0861 6.05125 9.4932C5.82357 9.14093 5.52998 8.98485 5.13627 9.00678C4.83714 9.02348 4.62805 9.11979 4.37451 9.35766C4.01062 9.69913 3.88973 9.99769 3.88973 10.555C3.88973 11.1333 4.02513 11.63 4.37554 12.3371C5.32602 14.2552 7.35419 16.1096 9.37326 16.9066C10.3216 17.281 10.9716 17.3945 12.1711 17.3952C12.4346 17.3953 12.6499 17.4057 12.6497 17.4183C12.6487 17.4611 12.2606 17.6724 11.8849 17.8346C10.1181 18.5971 8.29962 18.6972 6.59084 18.1259C5.66847 17.8175 4.59133 17.2025 3.80052 16.5328C3.44709 16.2335 2.86735 15.6466 2.7029 15.4217C2.263 14.8199 2.19513 14.5953 2.13907 13.5551L2.11814 13.1673H2.69615H3.27416L3.38716 13.4335C4.01186 14.9049 5.17579 16.3249 6.41786 17.1311C6.6772 17.2994 6.96715 17.4563 7.01895 17.4563C7.0403 17.4563 7.14449 17.2138 7.14449 17.1641C7.14449 17.16 7.06579 17.112 6.96958 17.0576C5.62382 16.2964 4.4883 15.0016 3.75571 13.3928C3.24697 12.2757 3.01904 11.3838 2.98671 10.384C2.96879 9.82969 2.99151 9.53314 3.088 9.06172C3.26567 8.1937 3.79014 7.24538 4.67389 6.19428L4.91595 5.9064L4.79066 5.79808C4.64064 5.66835 4.66631 5.65299 4.30452 6.08943C3.71185 6.80441 3.20934 7.61743 2.84861 8.44493C2.23884 9.84371 1.91799 11.1054 1.80429 12.5513L1.78455 12.8023H1.39227H1V12.9848V13.1673H1.3909H1.78181L1.80271 13.6008C1.89554 15.5262 2.41484 17.2812 3.27948 18.5916C3.75632 19.3143 4.1934 19.7231 4.82865 20.0407C5.05487 20.1538 5.65019 20.3563 5.91255 20.4094L6.09506 20.4464L6.29278 20.7377C7.42878 22.4116 9.04231 23.493 11.0578 23.9313C11.6024 24.0497 11.899 24.0893 12.4221 24.1135L12.8479 24.1331L12.8563 24.5665L12.8648 25H13.0312H13.1977V24.5589V24.1179H13.4074C14.2089 24.1179 15.496 23.8646 16.4525 23.5188C17.7888 23.0356 19.2243 22.0421 20.0376 21.0377C20.3399 20.6644 20.7273 20.0702 20.89 19.7303C21.2257 19.0291 21.3463 18.536 21.3681 17.7757C21.3779 17.4333 21.3696 17.1712 21.3435 17L21.3042 16.7414L21.1521 16.7521C21.0684 16.7579 20.9953 16.7672 20.9894 16.7728C20.9836 16.7783 20.9958 16.9065 21.0164 17.0576C21.0635 17.4018 21.0382 18.1448 20.9688 18.4601C20.8955 18.793 20.7557 19.2134 20.6334 19.4687C20.5746 19.5915 20.5341 19.666 20.5435 19.6342C20.5896 19.4777 20.6236 18.9241 20.6062 18.6122C20.5571 17.732 20.3318 17.0984 19.73 16.1483C19.587 15.9224 19.4246 15.6452 19.3692 15.5323C19.3137 15.4194 19.257 15.327 19.2432 15.327C19.2294 15.327 19.1662 15.3535 19.1027 15.3859L18.9873 15.4448L19.0413 15.652C19.113 15.9269 19.1181 16.5781 19.051 16.8688C18.9028 17.5102 18.5969 17.968 17.943 18.5271C17.44 18.9573 17.0283 19.3707 16.8025 19.6726C16.6104 19.9295 16.4651 20.2037 15.865 21.4411C15.4335 22.331 14.9453 22.9601 14.2513 23.5209L13.9734 23.7453L13.5856 23.7666L13.1977 23.7879V22.2389V20.6899L13.5205 20.6701C14.167 20.6305 14.9207 20.4287 15.4903 20.1426C16.2096 19.7814 16.8749 19.1925 17.3668 18.4815C17.6036 18.1393 17.9761 17.406 18.1405 16.9586C18.677 15.4981 18.7881 13.7462 18.4424 12.1999C18.3986 12.0042 18.3594 11.8405 18.3552 11.836C18.3384 11.8182 18.0342 11.9018 18.0342 11.9242C18.0342 11.9374 18.0623 12.0685 18.0966 12.2155C18.2377 12.8201 18.2864 13.2711 18.2885 13.9886C18.2905 14.7179 18.2604 15.0541 18.1389 15.6616C17.7898 17.4069 16.8925 18.8717 15.7081 19.6293C15.1969 19.9564 14.5102 20.1908 13.7452 20.2995C13.5696 20.3245 13.3745 20.3452 13.3118 20.3455L13.1977 20.346V20.0932V19.8403L13.4487 19.5984C13.5867 19.4653 14.1787 18.8912 14.7643 18.3227C15.35 17.7542 16.0238 17.1019 16.2618 16.8732L16.6946 16.4575L16.5963 16.335C16.5423 16.2676 16.4889 16.2152 16.4777 16.2184C16.4216 16.2346 14.6216 17.952 13.6008 18.9631L13.1977 19.3623V18.4281V17.4938L13.403 17.4729C14.3109 17.3808 15.2014 16.94 15.922 16.2261C16.6329 15.5219 17.0683 14.7017 17.2632 13.6996C17.3367 13.3221 17.3376 12.5494 17.2649 12.1884C16.9743 10.7445 16.0382 9.77518 14.8696 9.70814C14.3281 9.67705 13.8116 9.84408 13.3878 10.1872L13.1977 10.3412V9.48806V8.63498H13.6425C15.7674 8.63498 17.9549 9.86552 19.5908 11.981C19.9508 12.4464 20.2824 13.0029 20.4912 13.4914L20.5582 13.6483L20.7006 13.6054C20.7789 13.5818 20.8481 13.5575 20.8543 13.5513C20.8771 13.5285 20.7035 13.113 20.5541 12.8327C20.2874 12.3322 19.9087 11.7834 19.5319 11.3509C19.3745 11.1704 19.3686 11.1575 19.3996 11.062C19.4611 10.8722 19.5307 10.3523 19.5505 9.93478L19.5703 9.51599L19.9049 9.767C20.4961 10.2105 21.1834 10.9248 21.6638 11.595C22.4455 12.6853 23.0117 14.0223 23.1456 15.0935C23.1992 15.5219 23.1678 16.379 23.0841 16.7719C22.8979 17.6468 22.4193 18.5773 21.6499 19.5603L21.4435 19.824L21.564 19.9329C21.6304 19.9928 21.6948 20.0411 21.7073 20.0402C21.7573 20.0365 22.3222 19.2635 22.562 18.8707C23.1306 17.9394 23.5583 16.8776 23.8853 15.5856C24.0982 14.7443 24.2395 13.8614 24.2395 13.3728V13.1673H24.6198H25V12.9857V12.8042L24.6274 12.7956L24.2548 12.7871L24.2356 12.4355C24.2108 11.9807 24.1677 11.6526 24.0543 11.0532C23.8065 9.74443 23.5216 8.86552 23.0292 7.89071C22.4544 6.75294 21.821 6.05935 20.9626 5.62774C20.6648 5.47799 20.2006 5.29192 19.9017 5.20246C19.7099 5.1451 19.6758 5.1231 19.6002 5.00803C19.2551 4.48325 18.5171 3.70838 17.9914 3.31894C16.8264 2.45585 15.2904 1.94315 13.6312 1.86345L13.1977 1.84265V1.42132V1H13.0304H12.8631V1.41944ZM13.8973 2.23306C14.073 2.24283 14.4189 2.28493 14.666 2.32663C16.4671 2.63042 17.8829 3.42117 18.9589 4.72438C19.0686 4.85722 19.1548 4.9694 19.1505 4.97372C19.1462 4.97804 19.0267 4.94756 18.885 4.90598C18.077 4.66887 17.0707 4.64179 16.2852 4.83605C15.953 4.91817 15.5972 5.03632 15.3422 5.14914L15.1293 5.24335L14.1635 5.23346L13.1977 5.22354V4.57335V3.92313L13.3878 3.81813C13.6369 3.68058 14.116 3.50427 14.4426 3.42999C14.8 3.34868 15.3501 3.32368 15.7264 3.37165C15.8931 3.39288 16.0348 3.40496 16.0413 3.39851C16.0478 3.39203 16.0623 3.31723 16.0736 3.2323L16.0941 3.07784L15.8702 3.04356C15.4572 2.98023 15.2225 2.97141 14.9011 3.00712C14.288 3.07522 13.8601 3.20544 13.2205 3.5186C13.208 3.52474 13.1977 3.22713 13.1977 2.85719V2.18461L13.3878 2.19994C13.4924 2.20836 13.7217 2.22327 13.8973 2.23306ZM18.2924 5.12079C18.6504 5.19884 18.8753 5.28715 19.1153 5.44383C19.611 5.76742 19.9137 6.18236 20.2262 6.96657C20.3712 7.33065 20.532 7.61606 20.7269 7.85527C20.8036 7.94951 20.8607 8.02662 20.8538 8.02662C20.8468 8.02662 20.7481 7.98446 20.6345 7.93293C20.4652 7.85615 19.9183 7.6616 19.8718 7.6616C19.8649 7.6616 19.8597 7.74716 19.8602 7.85171L19.8612 8.04182L20.2228 8.15848C20.7072 8.31477 21.4527 8.68715 21.9731 9.03282C22.291 9.24398 22.484 9.40058 22.7362 9.65205C23.5117 10.4253 23.8282 11.1766 23.8927 12.3971L23.9136 12.7929L23.8232 12.811C23.7736 12.821 23.5233 12.8226 23.267 12.8146L22.801 12.8001L22.604 12.4438C22.1592 11.6392 21.6894 10.9928 21.096 10.3688C20.6484 9.89822 20.436 9.71897 19.6586 9.15611C19.5371 9.06814 19.5334 9.06023 19.5132 8.8428C19.4862 8.55087 19.3598 7.99164 19.2469 7.664C19.1087 7.263 18.7876 6.64055 18.5706 6.35276C18.328 6.03115 17.9988 5.71595 17.6996 5.51878C17.4808 5.37457 16.9956 5.13834 16.9163 5.13734C16.8955 5.13709 16.8783 5.12392 16.8783 5.10805C16.8783 5.03595 17.9474 5.0456 18.2924 5.12079ZM16.9052 5.51775C17.6398 5.76599 18.2413 6.33773 18.6686 7.19401C19.0314 7.92109 19.2205 8.7736 19.2205 9.68228C19.2205 9.98348 19.1502 10.7046 19.1109 10.8072C19.0948 10.849 19.027 10.7968 18.7679 10.5428C17.9474 9.73889 16.8558 9.03787 15.8745 8.68484C15.4144 8.51927 14.6953 8.33795 14.3404 8.29804C13.8617 8.24417 13.8611 8.24006 14.309 8.06455C14.7815 7.87939 15.4419 7.70954 15.9468 7.64322C16.4611 7.5757 17.5784 7.59994 18.0332 7.68846C18.3954 7.759 18.4044 7.75526 18.392 7.5405L18.384 7.40417L18.2167 7.36712C18.1247 7.34671 17.8442 7.30695 17.5933 7.27875C16.5431 7.16064 15.2741 7.31614 14.2928 7.68313C13.9843 7.79851 13.381 8.08292 13.2638 8.16815L13.193 8.21968L13.2141 8.10035C13.2764 7.74914 13.5518 7.16812 13.8572 6.744C14.2191 6.2414 14.7808 5.79097 15.3086 5.5802C15.632 5.45104 15.8749 5.41174 16.2852 5.42221C16.5897 5.42999 16.6924 5.44581 16.9052 5.51775ZM13.2899 5.62187C13.2439 5.7078 13.1977 5.72733 13.1977 5.66087C13.1977 5.59273 13.2228 5.56274 13.2799 5.56274C13.3117 5.56274 13.3141 5.5767 13.2899 5.62187ZM14.5046 5.58555C14.504 5.59811 14.4527 5.64678 14.3905 5.69375C14.0113 5.98038 13.5552 6.50619 13.3299 6.91635L13.2129 7.12928L13.2038 6.65779L13.1947 6.18631L13.4994 5.89089L13.8041 5.59547L14.0865 5.5854C14.2418 5.57989 14.3996 5.57253 14.4373 5.56906C14.4749 5.56557 14.5052 5.57299 14.5046 5.58555ZM12.8631 5.76371V5.93427L11.3187 7.50516C10.4693 8.36916 9.6842 9.17053 9.57411 9.28602L9.37393 9.496L9.35328 9.17956C9.26652 7.85074 9.90144 6.63398 10.9872 6.04833C11.4775 5.78385 12.1359 5.61071 12.7034 5.59702L12.8631 5.59316V5.76371ZM12.8631 7.38725V8.29922L12.7947 8.31477C12.757 8.32332 12.6185 8.35185 12.4868 8.37819C11.5508 8.56526 10.5636 9.23087 9.85719 10.1511C9.72633 10.3216 9.63303 10.4189 9.62403 10.3945C9.54686 10.1845 9.48669 9.98412 9.48669 9.93725C9.48669 9.90537 9.65293 9.7096 9.86363 9.49335C11.898 7.40538 12.815 6.4758 12.8403 6.47553C12.8529 6.47541 12.8631 6.88566 12.8631 7.38725ZM4.39574 7.75507C4.19504 7.91291 4.39164 8.22227 4.63361 8.1294C4.68687 8.10896 4.77186 7.96508 4.77186 7.89539C4.77186 7.82829 4.61895 7.69201 4.54367 7.69201C4.5064 7.69201 4.43982 7.72039 4.39574 7.75507ZM12.8628 9.95057C12.8625 10.9602 12.8536 11.238 12.8175 11.3726C12.7606 11.5844 12.7606 12.0572 12.8175 12.3156C12.8797 12.5983 12.8809 13.5323 12.8191 13.5323C12.7211 13.5323 12.2557 13.3666 12.0391 13.2546C11.157 12.7983 10.5905 11.7943 10.6524 10.7966C10.7052 9.94619 11.1089 9.35796 11.8962 8.98403C12.13 8.87306 12.6709 8.70053 12.7947 8.69749L12.8631 8.69582L12.8628 9.95057ZM2.64259 10.4129C2.64259 10.9468 2.79252 11.7833 3.00648 12.443C3.10604 12.7501 3.11528 12.8012 3.07413 12.8169C3.04794 12.827 2.82303 12.8257 2.57436 12.8142L2.12225 12.7931L2.13819 12.638C2.14695 12.5527 2.16249 12.3734 2.17275 12.2395C2.20167 11.8609 2.32681 11.1636 2.44767 10.7075C2.50811 10.4794 2.56459 10.262 2.5732 10.2243C2.60748 10.0744 2.64259 10.1698 2.64259 10.4129ZM10.3643 10.2983C10.3355 10.3797 10.3237 10.5736 10.3249 10.9468C10.3265 11.4359 10.3334 11.5008 10.4087 11.7462C10.7284 12.7869 11.5341 13.5744 12.523 13.8127C12.6683 13.8476 12.8042 13.8806 12.8251 13.8858C12.8537 13.893 12.8631 14.0277 12.8631 14.43V14.9645L12.7186 14.8817C12.2684 14.6237 11.7683 14.194 11.3995 13.7484L11.2637 13.5842L11.1512 13.6572C11.0894 13.6972 11.0386 13.7444 11.0384 13.762C11.0376 13.8316 11.3355 14.2016 11.6139 14.4768C11.9188 14.7783 12.3158 15.0659 12.6621 15.2364L12.8631 15.3354V16.1981C12.8631 16.9995 12.8593 17.0608 12.8099 17.0607C12.6752 17.0604 12.1536 16.9602 11.9202 16.8897C11.016 16.6168 10.0569 15.7915 9.60909 14.9011C8.99449 13.6791 9.02859 12.3465 9.7064 11.0989C9.90935 10.7253 10.3495 10.1264 10.3908 10.1677C10.3988 10.1757 10.3868 10.2345 10.3643 10.2983ZM6.94564 11.709C6.93986 11.7184 6.92621 11.8621 6.91529 12.0284C6.86805 12.7469 7.08 13.7326 7.42181 14.384C7.61396 14.7502 7.60532 14.7433 7.77049 14.6631C7.84697 14.6259 7.90497 14.5856 7.89938 14.5734C7.89381 14.5613 7.81862 14.4076 7.73229 14.2319C7.54589 13.8526 7.43708 13.5409 7.35678 13.1564C7.27818 12.78 7.23361 12.2462 7.25627 11.9524L7.27468 11.7137L7.11541 11.7028C7.02783 11.6969 6.95142 11.6997 6.94564 11.709ZM16.9132 12.557C16.9735 12.9814 16.9088 13.4956 16.7445 13.8973C16.5048 14.4836 15.9357 15.0134 15.325 15.2191C14.9654 15.3403 14.5004 15.3608 14.146 15.2711C13.8161 15.1877 13.5435 15.0544 13.3531 14.8831L13.1977 14.7434V13.9706C13.1977 13.5455 13.2054 13.1977 13.2149 13.1977C13.2244 13.1977 13.2962 13.2635 13.3746 13.344C13.5441 13.5179 13.867 13.7145 14.1407 13.8104C14.4247 13.9099 15.0046 13.912 15.3118 13.8147C15.6175 13.7178 15.8885 13.5487 16.1329 13.3021C16.4861 12.9459 16.6821 12.54 16.7195 12.0875L16.7371 11.8745L16.8088 12.1007C16.8482 12.2252 16.8952 12.4305 16.9132 12.557ZM23.9049 13.3735C23.9049 13.8121 23.7381 14.8462 23.5922 15.3118L23.5254 15.5247L23.517 15.3878C23.4772 14.7391 23.2914 13.9932 22.9771 13.2205C22.957 13.1712 22.9901 13.1673 23.4302 13.1673H23.9049V13.3735ZM21.0683 14.2025C20.8771 14.2503 20.6508 14.3811 20.5119 14.5239C20.3311 14.7101 20.2479 14.9381 20.2466 15.2515C20.2454 15.5555 20.3112 15.718 20.5291 15.9483C20.8709 16.3097 21.3527 16.389 21.7849 16.1551C22.3355 15.857 22.4951 15.0874 22.1077 14.5973C21.9736 14.4277 21.7657 14.2796 21.5942 14.2314C21.4255 14.184 21.1932 14.1713 21.0683 14.2025ZM15.9635 15.5638C15.5214 16.1565 14.8057 16.6774 14.116 16.9084C13.856 16.9955 13.2717 17.1016 13.2205 17.0709C13.208 17.0634 13.1977 16.6732 13.1977 16.2038C13.1977 15.4048 13.2011 15.3514 13.2509 15.3672C13.2802 15.3765 13.4329 15.434 13.5903 15.4948C13.7476 15.5557 13.9781 15.625 14.1024 15.6488C14.3966 15.705 14.9616 15.7041 15.2339 15.6468C15.4559 15.6001 15.9883 15.4074 16.0414 15.3546C16.0611 15.335 16.0752 15.336 16.0823 15.3573C16.0883 15.3752 16.0348 15.4681 15.9635 15.5638ZM19.5446 16.5303C19.6889 16.8453 19.6721 17.1692 19.4908 17.5733C19.3638 17.8564 19.1626 18.1215 18.7424 18.5595C18.3036 19.0168 18.0784 19.3068 17.9334 19.6008C17.6822 20.1102 17.6388 20.3617 17.6388 21.3049C17.6388 22.0271 17.6126 22.3001 17.52 22.5437C17.483 22.641 17.0399 22.8743 16.4257 23.1199C15.9508 23.3098 15.7854 23.3634 15.2662 23.4956C14.6951 23.641 14.6273 23.6557 14.6281 23.6346C14.6285 23.6243 14.6845 23.5749 14.7526 23.5247C14.9309 23.3932 15.3233 22.9771 15.5208 22.7101C15.7981 22.3351 16.0481 21.8968 16.3195 21.3096C16.9372 19.9731 17.1546 19.6689 18.017 18.933C18.6542 18.3893 18.9479 18.0478 19.1563 17.6084C19.3062 17.2922 19.3996 16.945 19.4241 16.6122C19.4342 16.4741 19.4481 16.3612 19.4549 16.3612C19.4617 16.3612 19.5021 16.4373 19.5446 16.5303ZM9.14242 17.4573C8.98251 17.5831 9.06196 17.8213 9.26385 17.8213C9.37874 17.8213 9.45627 17.7385 9.45627 17.6158C9.45627 17.5268 9.39176 17.4259 9.3349 17.4259C9.32076 17.4259 9.29001 17.4185 9.26659 17.4095C9.24316 17.4005 9.18729 17.4221 9.14242 17.4573ZM4.97478 17.7812C5.86275 18.2945 6.81567 18.6313 7.81369 18.7847C8.28109 18.8565 9.35893 18.8566 9.83057 18.7849C10.8313 18.6326 11.8019 18.315 12.5903 17.8816C12.7115 17.815 12.8241 17.7605 12.8405 17.7605C12.858 17.7605 12.8652 17.84 12.8578 17.9547C12.8468 18.1274 12.8312 18.1674 12.7169 18.3156C12.1267 19.0806 11.386 19.6976 10.6805 20.0118C10.0652 20.2858 9.56757 20.3998 8.86312 20.428C8.06366 20.46 7.49381 20.3558 6.91635 20.0718C6.26038 19.7493 5.90625 19.4053 5.31982 18.5209C5.14786 18.2616 4.9259 17.9502 4.82659 17.8289C4.72724 17.7076 4.65268 17.6084 4.6609 17.6084C4.66908 17.6084 4.81034 17.6861 4.97478 17.7812ZM12.8636 19.1673L12.8641 19.5703L12.5366 19.8858C12.3565 20.0593 12.1605 20.2373 12.1011 20.2812L11.993 20.3612L11.3958 20.3524L10.7985 20.3435L11.1002 20.1851C11.5682 19.9392 11.9259 19.6691 12.4063 19.1988C12.6492 18.9609 12.8513 18.7658 12.8555 18.7653C12.8597 18.7647 12.8633 18.9456 12.8636 19.1673ZM12.8631 20.2261V20.346H12.7117H12.5604L12.6889 20.2144C12.7596 20.1419 12.8277 20.088 12.8403 20.0945C12.8529 20.101 12.8631 20.1602 12.8631 20.2261ZM6.85551 20.5867C7.19708 20.6609 7.78811 20.7437 8.10266 20.7614C8.28669 20.7717 8.46093 20.7923 8.48982 20.8071C8.51872 20.822 8.63507 20.9045 8.74838 20.9904C9.03988 21.2116 9.66208 21.5068 10.0736 21.6193C10.3724 21.701 11.0611 21.8237 11.085 21.7996C11.0897 21.7948 11.0976 21.716 11.1024 21.6244L11.1112 21.4579L10.8244 21.4195C10.2822 21.3469 9.69731 21.156 9.25518 20.9073L9.04563 20.7895L9.47148 20.7326C9.7057 20.7013 9.94525 20.6758 10.0038 20.6759C10.0624 20.676 10.692 20.6845 11.403 20.6948C12.1141 20.7051 12.7335 20.713 12.7795 20.7123L12.8631 20.711V22.2518V23.7926L12.4601 23.7734C11.4959 23.7274 10.4361 23.4732 9.55881 23.0775C8.46391 22.5836 7.46294 21.7675 6.76405 20.7989C6.58291 20.5478 6.56931 20.5168 6.65019 20.539C6.67945 20.547 6.77186 20.5685 6.85551 20.5867Z" fill="#6C705C" stroke="#6C705C" stroke-width="0.5" stroke-linejoin="round"/>
<rect opacity="0.6" x="5.59717" y="5.41687" width="3.60563" height="14.9859" rx="1.80282" fill="#D5D7B7"/>
<g filter="url(#filter0_ddd_1070_318)">
<path d="M6.37134 18.6945C6.37134 18.5095 6.41412 18.3439 6.49968 18.1977C6.588 18.0514 6.71081 17.9368 6.86813 17.854C7.02545 17.7685 7.20623 17.7257 7.41047 17.7257C7.61746 17.7257 7.79686 17.7685 7.94866 17.854C8.10046 17.9368 8.21638 18.0514 8.29642 18.1977C8.37922 18.3439 8.42062 18.5095 8.42062 18.6945C8.42062 18.8794 8.37922 19.0464 8.29642 19.1954C8.21638 19.3417 8.10046 19.4576 7.94866 19.5431C7.79686 19.6287 7.6147 19.6715 7.40219 19.6715C7.20347 19.6715 7.02545 19.6328 6.86813 19.5556C6.71357 19.4783 6.59214 19.3665 6.50382 19.2202C6.4155 19.074 6.37134 18.8987 6.37134 18.6945ZM6.95507 18.6986C6.95507 18.7924 6.97439 18.878 7.01303 18.9553C7.05167 19.0298 7.10411 19.0891 7.17035 19.1333C7.23659 19.1775 7.31111 19.1995 7.39391 19.1995C7.48499 19.1995 7.56364 19.1775 7.62988 19.1333C7.69612 19.0891 7.74718 19.0298 7.78306 18.9553C7.81894 18.878 7.83688 18.7924 7.83688 18.6986C7.83688 18.602 7.81894 18.5164 7.78306 18.4419C7.74718 18.3674 7.69612 18.3081 7.62988 18.2639C7.56364 18.2197 7.48499 18.1977 7.39391 18.1977C7.31111 18.1977 7.23659 18.2197 7.17035 18.2639C7.10411 18.3081 7.05167 18.3674 7.01303 18.4419C6.97439 18.5164 6.95507 18.602 6.95507 18.6986Z" fill="#262A19"/>
</g>
<g filter="url(#filter1_ddd_1070_318)">
<path d="M7.86023 13.4121H8.43982V16.6785H7.86023V13.4121Z" fill="#262A19"/>
</g>
<g filter="url(#filter2_ddd_1070_318)">
<path d="M6.35254 13.4121H6.93213V16.6785H6.35254V13.4121Z" fill="#262A19"/>
</g>
<g filter="url(#filter3_ddd_1070_318)">
<path d="M7.44052 12.1355C7.21972 12.1355 7.03204 12.0941 6.87748 12.0113C6.72568 11.9285 6.60977 11.8139 6.52973 11.6677C6.44969 11.5214 6.40967 11.353 6.40967 11.1626C6.40967 10.9804 6.45659 10.8162 6.55043 10.6699C6.64427 10.5237 6.76984 10.4077 6.92716 10.3222C7.08448 10.2339 7.25974 10.1897 7.45294 10.1897C7.71237 10.1897 7.92489 10.2656 8.09049 10.4174C8.25885 10.5664 8.36787 10.7831 8.41755 11.0674L7.00996 11.5145L6.88162 11.1998L7.90005 10.8562L7.77999 10.91C7.75791 10.8383 7.71789 10.7762 7.65993 10.7238C7.60473 10.6686 7.52056 10.641 7.4074 10.641C7.32184 10.641 7.24594 10.6617 7.1797 10.7031C7.11622 10.7417 7.06654 10.7983 7.03066 10.8728C6.99754 10.9445 6.98098 11.0301 6.98098 11.1295C6.98098 11.2426 7.00168 11.3378 7.04308 11.4151C7.08448 11.4896 7.14106 11.5462 7.21282 11.5849C7.28458 11.6235 7.36462 11.6428 7.45294 11.6428C7.51642 11.6428 7.57713 11.6318 7.63509 11.6097C7.69581 11.5876 7.75515 11.5586 7.81311 11.5228L8.06979 11.9533C7.97319 12.0085 7.86831 12.0527 7.75515 12.0858C7.64475 12.1189 7.53988 12.1355 7.44052 12.1355Z" fill="#262A19"/>
</g>
<g filter="url(#filter4_ddd_1070_318)">
<path d="M8.63171 8.89009C8.59859 8.91769 8.53649 8.95495 8.44541 9.00187C8.35709 9.04879 8.24807 9.09019 8.11835 9.12607C7.98864 9.16195 7.84512 9.17851 7.6878 9.17575C7.44768 9.17023 7.2324 9.12745 7.04197 9.04741C6.85429 8.96461 6.69421 8.85283 6.56173 8.71207C6.43201 8.57131 6.33265 8.40985 6.26366 8.2277C6.19466 8.04554 6.16016 7.85096 6.16016 7.64396C6.16016 7.41212 6.19466 7.19961 6.26366 7.00641C6.33541 6.81321 6.43615 6.64623 6.56587 6.50548C6.69835 6.36472 6.85567 6.2557 7.03783 6.17842C7.21998 6.10114 7.42146 6.0625 7.64226 6.0625C7.8465 6.0625 8.02728 6.0901 8.18459 6.1453C8.34191 6.2005 8.47025 6.25984 8.56961 6.32332L8.33363 6.89049C8.26463 6.83805 8.17217 6.78423 8.05626 6.72903C7.9431 6.67107 7.812 6.64209 7.66296 6.64209C7.54704 6.64209 7.43526 6.66693 7.32762 6.71661C7.22274 6.76353 7.12891 6.83115 7.04611 6.91947C6.96607 7.00779 6.90259 7.11129 6.85567 7.22997C6.80875 7.34589 6.78529 7.47284 6.78529 7.61084C6.78529 7.75712 6.80599 7.89098 6.84739 8.01242C6.89155 8.13386 6.95365 8.23874 7.03369 8.32705C7.11373 8.41261 7.20894 8.47885 7.31934 8.52577C7.4325 8.57269 7.55946 8.59615 7.70022 8.59615C7.86306 8.59615 8.00244 8.56993 8.11835 8.51749C8.23427 8.46505 8.32259 8.40985 8.38331 8.35189L8.63171 8.89009Z" fill="#262A19"/>
</g>
<g filter="url(#filter5_dddddddd_1070_318)">
<path d="M22.6228 14.643L22.6684 14.9659L22.6601 14.9369C22.7236 14.8237 22.8133 14.7327 22.9292 14.6637C23.0451 14.5919 23.1872 14.556 23.3556 14.556C23.5267 14.556 23.6688 14.6071 23.782 14.7092C23.8979 14.8086 23.9573 14.9383 23.96 15.0984V16.4521H23.3804V15.3136C23.3777 15.2336 23.3556 15.1701 23.3142 15.1232C23.2756 15.0735 23.2093 15.0487 23.1155 15.0487C23.0272 15.0487 22.9499 15.0777 22.8836 15.1356C22.8174 15.1936 22.7663 15.2722 22.7305 15.3716C22.6946 15.471 22.6766 15.5855 22.6766 15.7152V16.4521H22.097V14.643H22.6228Z" fill="#D5D7B7"/>
</g>
<g filter="url(#filter6_dddddddd_1070_318)">
<path d="M20.4542 17.3629C20.2914 17.3629 20.1534 17.3436 20.0402 17.3049C19.9298 17.2663 19.836 17.2194 19.7587 17.1642C19.6814 17.109 19.6124 17.0566 19.5517 17.0069L19.8912 16.6094C19.9546 16.6674 20.0278 16.7226 20.1106 16.775C20.1961 16.8302 20.3079 16.8578 20.4459 16.8578C20.537 16.8578 20.6212 16.8413 20.6985 16.8082C20.7785 16.7778 20.842 16.7323 20.8889 16.6715C20.9386 16.6108 20.9634 16.5349 20.9634 16.4438V16.0464L20.9841 16.1499C20.94 16.2437 20.8599 16.3265 20.744 16.3983C20.6281 16.4673 20.4763 16.5018 20.2886 16.5018C20.1258 16.5018 19.974 16.4604 19.8332 16.3776C19.6952 16.292 19.5848 16.1775 19.502 16.034C19.4192 15.8877 19.3778 15.7221 19.3778 15.5372C19.3778 15.3468 19.422 15.1784 19.5103 15.0321C19.5986 14.8831 19.7131 14.7658 19.8539 14.6802C19.9947 14.5947 20.1437 14.5519 20.301 14.5519C20.4583 14.5519 20.5936 14.5753 20.7067 14.6223C20.8227 14.6664 20.9096 14.7216 20.9675 14.7879L20.9469 14.8417L21.0089 14.643H21.543V16.4521C21.543 16.6288 21.4933 16.7847 21.394 16.9199C21.2946 17.0579 21.1621 17.1656 20.9965 17.2428C20.8337 17.3229 20.6529 17.3629 20.4542 17.3629ZM19.9615 15.5206C19.9615 15.6172 19.9836 15.7042 20.0278 15.7814C20.0719 15.8587 20.1313 15.9194 20.2058 15.9636C20.2831 16.0078 20.3686 16.0298 20.4625 16.0298C20.5425 16.0298 20.6129 16.0202 20.6736 16.0009C20.7371 15.9788 20.7923 15.9484 20.8392 15.9098C20.8889 15.8684 20.9303 15.8173 20.9634 15.7566V15.3136C20.9386 15.2529 20.9013 15.2019 20.8516 15.1605C20.802 15.1163 20.744 15.0832 20.6778 15.0611C20.6143 15.0363 20.5425 15.0238 20.4625 15.0238C20.3686 15.0238 20.2831 15.0459 20.2058 15.0901C20.1313 15.1315 20.0719 15.1894 20.0278 15.264C19.9836 15.3385 19.9615 15.424 19.9615 15.5206Z" fill="#D5D7B7"/>
</g>
<g filter="url(#filter7_dddddddd_1070_318)">
<path d="M18.3835 14.643H18.9631V16.4522H18.3835V14.643ZM18.3711 14.0013C18.3711 13.9158 18.4042 13.8454 18.4705 13.7902C18.5395 13.735 18.6126 13.7074 18.6899 13.7074C18.7671 13.7074 18.8375 13.735 18.901 13.7902C18.9672 13.8454 19.0004 13.9158 19.0004 14.0013C19.0004 14.0869 18.9672 14.1573 18.901 14.2125C18.8375 14.2649 18.7671 14.2911 18.6899 14.2911C18.6126 14.2911 18.5395 14.2649 18.4705 14.2125C18.4042 14.1573 18.3711 14.0869 18.3711 14.0013Z" fill="#D5D7B7"/>
</g>
<g filter="url(#filter8_dddddddd_1070_318)">
<path d="M17.1611 16.4894C17.0121 16.4894 16.8727 16.4632 16.743 16.4107C16.616 16.3583 16.5084 16.2852 16.42 16.1913L16.6602 15.8725C16.7485 15.9526 16.8299 16.0105 16.9044 16.0464C16.9817 16.0795 17.0507 16.0961 17.1114 16.0961C17.1583 16.0961 17.1997 16.092 17.2356 16.0837C17.2743 16.0726 17.3046 16.0575 17.3267 16.0381C17.3488 16.0161 17.3598 15.9885 17.3598 15.9553C17.3598 15.9084 17.3405 15.8712 17.3019 15.8436C17.266 15.816 17.2191 15.7939 17.1611 15.7773C17.1031 15.758 17.041 15.7387 16.9748 15.7194C16.8092 15.6669 16.6891 15.591 16.6146 15.4917C16.5429 15.3896 16.507 15.2792 16.507 15.1605C16.507 15.0694 16.5304 14.9783 16.5774 14.8872C16.627 14.7934 16.7043 14.7161 16.8092 14.6554C16.9168 14.5919 17.0548 14.5602 17.2232 14.5602C17.375 14.5602 17.5033 14.5754 17.6082 14.6057C17.7131 14.6361 17.8124 14.6858 17.9063 14.7548L17.6869 15.0942C17.6344 15.0528 17.5751 15.0183 17.5089 14.9907C17.4454 14.9604 17.386 14.9438 17.3308 14.9411C17.2812 14.9383 17.2384 14.9438 17.2025 14.9576C17.1694 14.9714 17.1432 14.9894 17.1238 15.0114C17.1045 15.0335 17.0949 15.057 17.0949 15.0818C17.0921 15.1343 17.1114 15.1757 17.1528 15.206C17.197 15.2364 17.2522 15.2598 17.3184 15.2764C17.3847 15.293 17.4495 15.3123 17.513 15.3344C17.6013 15.362 17.6772 15.3992 17.7407 15.4461C17.8042 15.4931 17.8525 15.5496 17.8856 15.6159C17.9215 15.6793 17.9394 15.7566 17.9394 15.8477C17.9394 15.9581 17.9104 16.063 17.8525 16.1623C17.7973 16.2589 17.7117 16.3376 17.5958 16.3983C17.4826 16.459 17.3377 16.4894 17.1611 16.4894Z" fill="#D5D7B7"/>
</g>
<g filter="url(#filter9_dddddddd_1070_318)">
<path d="M15.2164 16.5018C14.9956 16.5018 14.8079 16.4604 14.6534 16.3776C14.5016 16.2948 14.3856 16.1803 14.3056 16.034C14.2256 15.8877 14.1855 15.7194 14.1855 15.5289C14.1855 15.3468 14.2325 15.1825 14.3263 15.0363C14.4201 14.89 14.5457 14.7741 14.703 14.6885C14.8604 14.6002 15.0356 14.556 15.2288 14.556C15.4883 14.556 15.7008 14.6319 15.8664 14.7837C16.0347 14.9328 16.1437 15.1494 16.1934 15.4337L14.7858 15.8808L14.6575 15.5662L15.6759 15.2226L15.5559 15.2764C15.5338 15.2046 15.4938 15.1425 15.4358 15.0901C15.3806 15.0349 15.2964 15.0073 15.1833 15.0073C15.0977 15.0073 15.0218 15.028 14.9556 15.0694C14.8921 15.108 14.8424 15.1646 14.8065 15.2391C14.7734 15.3109 14.7569 15.3964 14.7569 15.4958C14.7569 15.609 14.7776 15.7042 14.819 15.7815C14.8604 15.856 14.9169 15.9126 14.9887 15.9512C15.0605 15.9898 15.1405 16.0092 15.2288 16.0092C15.2923 16.0092 15.353 15.9981 15.411 15.976C15.4717 15.954 15.531 15.925 15.589 15.8891L15.8457 16.3197C15.7491 16.3749 15.6442 16.419 15.531 16.4521C15.4206 16.4852 15.3158 16.5018 15.2164 16.5018Z" fill="#D5D7B7"/>
</g>
<g filter="url(#filter10_dddddddd_1070_318)">
<path d="M11.269 16.4522V13.4052H12.1798C12.4862 13.4052 12.747 13.4507 12.9623 13.5418C13.1776 13.6328 13.3501 13.7543 13.4798 13.9061C13.6123 14.0579 13.7089 14.2276 13.7696 14.4153C13.8303 14.603 13.8607 14.792 13.8607 14.9825C13.8607 15.2088 13.8193 15.413 13.7365 15.5952C13.6564 15.7746 13.546 15.9291 13.4053 16.0589C13.2645 16.1858 13.1017 16.2838 12.9167 16.3528C12.7318 16.419 12.5359 16.4522 12.3289 16.4522H11.269ZM11.8693 15.8726H12.2254C12.3772 15.8726 12.5152 15.8532 12.6394 15.8146C12.7636 15.7732 12.8698 15.7139 12.9581 15.6366C13.0492 15.5593 13.1182 15.4627 13.1651 15.3468C13.2148 15.2281 13.2397 15.0929 13.2397 14.9411C13.2397 14.7424 13.2065 14.5809 13.1403 14.4567C13.0768 14.3297 12.9968 14.2318 12.9002 14.1628C12.8063 14.0938 12.7097 14.0468 12.6104 14.022C12.511 13.9944 12.4269 13.9806 12.3579 13.9806H11.8693V15.8726Z" fill="#D5D7B7"/>
</g>
<circle cx="10.1944" cy="16.0084" r="0.450704" fill="#D5D7B7"/>
<defs>
<filter id="filter0_ddd_1070_318" x="2.37134" y="17.7257" width="10.0493" height="9.9458" filterUnits="userSpaceOnUse" color-interpolation-filters="sRGB">
<feFlood flood-opacity="0" result="BackgroundImageFix"/>
<feColorMatrix in="SourceAlpha" type="matrix" values="0 0 0 0 0 0 0 0 0 0 0 0 0 0 0 0 0 0 127 0" result="hardAlpha"/>
<feOffset dy="4"/>
<feGaussianBlur stdDeviation="2"/>
<feComposite in2="hardAlpha" operator="out"/>
<feColorMatrix type="matrix" values="0 0 0 0 0 0 0 0 0 0 0 0 0 0 0 0 0 0 0.25 0"/>
<feBlend mode="normal" in2="BackgroundImageFix" result="effect1_dropShadow_1070_318"/>
<feColorMatrix in="SourceAlpha" type="matrix" values="0 0 0 0 0 0 0 0 0 0 0 0 0 0 0 0 0 0 127 0" result="hardAlpha"/>
<feOffset dy="4"/>
<feGaussianBlur stdDeviation="2"/>
<feComposite in2="hardAlpha" operator="out"/>
<feColorMatrix type="matrix" values="0 0 0 0 0 0 0 0 0 0 0 0 0 0 0 0 0 0 0.25 0"/>
<feBlend mode="normal" in2="effect1_dropShadow_1070_318" result="effect2_dropShadow_1070_318"/>
<feColorMatrix in="SourceAlpha" type="matrix" values="0 0 0 0 0 0 0 0 0 0 0 0 0 0 0 0 0 0 127 0" result="hardAlpha"/>
<feOffset dy="4"/>
<feGaussianBlur stdDeviation="2"/>
<feComposite in2="hardAlpha" operator="out"/>
<feColorMatrix type="matrix" values="0 0 0 0 0 0 0 0 0 0 0 0 0 0 0 0 0 0 0.25 0"/>
<feBlend mode="normal" in2="effect2_dropShadow_1070_318" result="effect3_dropShadow_1070_318"/>
<feBlend mode="normal" in="SourceGraphic" in2="effect3_dropShadow_1070_318" result="shape"/>
</filter>
<filter id="filter1_ddd_1070_318" x="3.86023" y="13.4121" width="8.57959" height="11.2665" filterUnits="userSpaceOnUse" color-interpolation-filters="sRGB">
<feFlood flood-opacity="0" result="BackgroundImageFix"/>
<feColorMatrix in="SourceAlpha" type="matrix" values="0 0 0 0 0 0 0 0 0 0 0 0 0 0 0 0 0 0 127 0" result="hardAlpha"/>
<feOffset dy="4"/>
<feGaussianBlur stdDeviation="2"/>
<feComposite in2="hardAlpha" operator="out"/>
<feColorMatrix type="matrix" values="0 0 0 0 0 0 0 0 0 0 0 0 0 0 0 0 0 0 0.25 0"/>
<feBlend mode="normal" in2="BackgroundImageFix" result="effect1_dropShadow_1070_318"/>
<feColorMatrix in="SourceAlpha" type="matrix" values="0 0 0 0 0 0 0 0 0 0 0 0 0 0 0 0 0 0 127 0" result="hardAlpha"/>
<feOffset dy="4"/>
<feGaussianBlur stdDeviation="2"/>
<feComposite in2="hardAlpha" operator="out"/>
<feColorMatrix type="matrix" values="0 0 0 0 0 0 0 0 0 0 0 0 0 0 0 0 0 0 0.25 0"/>
<feBlend mode="normal" in2="effect1_dropShadow_1070_318" result="effect2_dropShadow_1070_318"/>
<feColorMatrix in="SourceAlpha" type="matrix" values="0 0 0 0 0 0 0 0 0 0 0 0 0 0 0 0 0 0 127 0" result="hardAlpha"/>
<feOffset dy="4"/>
<feGaussianBlur stdDeviation="2"/>
<feComposite in2="hardAlpha" operator="out"/>
<feColorMatrix type="matrix" values="0 0 0 0 0 0 0 0 0 0 0 0 0 0 0 0 0 0 0.25 0"/>
<feBlend mode="normal" in2="effect2_dropShadow_1070_318" result="effect3_dropShadow_1070_318"/>
<feBlend mode="normal" in="SourceGraphic" in2="effect3_dropShadow_1070_318" result="shape"/>
</filter>
<filter id="filter2_ddd_1070_318" x="2.35254" y="13.4121" width="8.57959" height="11.2665" filterUnits="userSpaceOnUse" color-interpolation-filters="sRGB">
<feFlood flood-opacity="0" result="BackgroundImageFix"/>
<feColorMatrix in="SourceAlpha" type="matrix" values="0 0 0 0 0 0 0 0 0 0 0 0 0 0 0 0 0 0 127 0" result="hardAlpha"/>
<feOffset dy="4"/>
<feGaussianBlur stdDeviation="2"/>
<feComposite in2="hardAlpha" operator="out"/>
<feColorMatrix type="matrix" values="0 0 0 0 0 0 0 0 0 0 0 0 0 0 0 0 0 0 0.25 0"/>
<feBlend mode="normal" in2="BackgroundImageFix" result="effect1_dropShadow_1070_318"/>
<feColorMatrix in="SourceAlpha" type="matrix" values="0 0 0 0 0 0 0 0 0 0 0 0 0 0 0 0 0 0 127 0" result="hardAlpha"/>
<feOffset dy="4"/>
<feGaussianBlur stdDeviation="2"/>
<feComposite in2="hardAlpha" operator="out"/>
<feColorMatrix type="matrix" values="0 0 0 0 0 0 0 0 0 0 0 0 0 0 0 0 0 0 0.25 0"/>
<feBlend mode="normal" in2="effect1_dropShadow_1070_318" result="effect2_dropShadow_1070_318"/>
<feColorMatrix in="SourceAlpha" type="matrix" values="0 0 0 0 0 0 0 0 0 0 0 0 0 0 0 0 0 0 127 0" result="hardAlpha"/>
<feOffset dy="4"/>
<feGaussianBlur stdDeviation="2"/>
<feComposite in2="hardAlpha" operator="out"/>
<feColorMatrix type="matrix" values="0 0 0 0 0 0 0 0 0 0 0 0 0 0 0 0 0 0 0.25 0"/>
<feBlend mode="normal" in2="effect2_dropShadow_1070_318" result="effect3_dropShadow_1070_318"/>
<feBlend mode="normal" in="SourceGraphic" in2="effect3_dropShadow_1070_318" result="shape"/>
</filter>
<filter id="filter3_ddd_1070_318" x="2.40967" y="10.1897" width="10.0079" height="9.9458" filterUnits="userSpaceOnUse" color-interpolation-filters="sRGB">
<feFlood flood-opacity="0" result="BackgroundImageFix"/>
<feColorMatrix in="SourceAlpha" type="matrix" values="0 0 0 0 0 0 0 0 0 0 0 0 0 0 0 0 0 0 127 0" result="hardAlpha"/>
<feOffset dy="4"/>
<feGaussianBlur stdDeviation="2"/>
<feComposite in2="hardAlpha" operator="out"/>
<feColorMatrix type="matrix" values="0 0 0 0 0 0 0 0 0 0 0 0 0 0 0 0 0 0 0.25 0"/>
<feBlend mode="normal" in2="BackgroundImageFix" result="effect1_dropShadow_1070_318"/>
<feColorMatrix in="SourceAlpha" type="matrix" values="0 0 0 0 0 0 0 0 0 0 0 0 0 0 0 0 0 0 127 0" result="hardAlpha"/>
<feOffset dy="4"/>
<feGaussianBlur stdDeviation="2"/>
<feComposite in2="hardAlpha" operator="out"/>
<feColorMatrix type="matrix" values="0 0 0 0 0 0 0 0 0 0 0 0 0 0 0 0 0 0 0.25 0"/>
<feBlend mode="normal" in2="effect1_dropShadow_1070_318" result="effect2_dropShadow_1070_318"/>
<feColorMatrix in="SourceAlpha" type="matrix" values="0 0 0 0 0 0 0 0 0 0 0 0 0 0 0 0 0 0 127 0" result="hardAlpha"/>
<feOffset dy="4"/>
<feGaussianBlur stdDeviation="2"/>
<feComposite in2="hardAlpha" operator="out"/>
<feColorMatrix type="matrix" values="0 0 0 0 0 0 0 0 0 0 0 0 0 0 0 0 0 0 0.25 0"/>
<feBlend mode="normal" in2="effect2_dropShadow_1070_318" result="effect3_dropShadow_1070_318"/>
<feBlend mode="normal" in="SourceGraphic" in2="effect3_dropShadow_1070_318" result="shape"/>
</filter>
<filter id="filter4_ddd_1070_318" x="2.16016" y="6.0625" width="10.4716" height="11.1135" filterUnits="userSpaceOnUse" color-interpolation-filters="sRGB">
<feFlood flood-opacity="0" result="BackgroundImageFix"/>
<feColorMatrix in="SourceAlpha" type="matrix" values="0 0 0 0 0 0 0 0 0 0 0 0 0 0 0 0 0 0 127 0" result="hardAlpha"/>
<feOffset dy="4"/>
<feGaussianBlur stdDeviation="2"/>
<feComposite in2="hardAlpha" operator="out"/>
<feColorMatrix type="matrix" values="0 0 0 0 0 0 0 0 0 0 0 0 0 0 0 0 0 0 0.25 0"/>
<feBlend mode="normal" in2="BackgroundImageFix" result="effect1_dropShadow_1070_318"/>
<feColorMatrix in="SourceAlpha" type="matrix" values="0 0 0 0 0 0 0 0 0 0 0 0 0 0 0 0 0 0 127 0" result="hardAlpha"/>
<feOffset dy="4"/>
<feGaussianBlur stdDeviation="2"/>
<feComposite in2="hardAlpha" operator="out"/>
<feColorMatrix type="matrix" values="0 0 0 0 0 0 0 0 0 0 0 0 0 0 0 0 0 0 0.25 0"/>
<feBlend mode="normal" in2="effect1_dropShadow_1070_318" result="effect2_dropShadow_1070_318"/>
<feColorMatrix in="SourceAlpha" type="matrix" values="0 0 0 0 0 0 0 0 0 0 0 0 0 0 0 0 0 0 127 0" result="hardAlpha"/>
<feOffset dy="4"/>
<feGaussianBlur stdDeviation="2"/>
<feComposite in2="hardAlpha" operator="out"/>
<feColorMatrix type="matrix" values="0 0 0 0 0 0 0 0 0 0 0 0 0 0 0 0 0 0 0.25 0"/>
<feBlend mode="normal" in2="effect2_dropShadow_1070_318" result="effect3_dropShadow_1070_318"/>
<feBlend mode="normal" in="SourceGraphic" in2="effect3_dropShadow_1070_318" result="shape"/>
</filter>
<filter id="filter5_dddddddd_1070_318" x="18.097" y="14.556" width="9.86304" height="9.89612" filterUnits="userSpaceOnUse" color-interpolation-filters="sRGB">
<feFlood flood-opacity="0" result="BackgroundImageFix"/>
<feColorMatrix in="SourceAlpha" type="matrix" values="0 0 0 0 0 0 0 0 0 0 0 0 0 0 0 0 0 0 127 0" result="hardAlpha"/>
<feOffset dy="4"/>
<feGaussianBlur stdDeviation="2"/>
<feComposite in2="hardAlpha" operator="out"/>
<feColorMatrix type="matrix" values="0 0 0 0 0 0 0 0 0 0 0 0 0 0 0 0 0 0 0.25 0"/>
<feBlend mode="normal" in2="BackgroundImageFix" result="effect1_dropShadow_1070_318"/>
<feColorMatrix in="SourceAlpha" type="matrix" values="0 0 0 0 0 0 0 0 0 0 0 0 0 0 0 0 0 0 127 0" result="hardAlpha"/>
<feOffset dy="4"/>
<feGaussianBlur stdDeviation="2"/>
<feComposite in2="hardAlpha" operator="out"/>
<feColorMatrix type="matrix" values="0 0 0 0 0 0 0 0 0 0 0 0 0 0 0 0 0 0 0.25 0"/>
<feBlend mode="normal" in2="effect1_dropShadow_1070_318" result="effect2_dropShadow_1070_318"/>
<feColorMatrix in="SourceAlpha" type="matrix" values="0 0 0 0 0 0 0 0 0 0 0 0 0 0 0 0 0 0 127 0" result="hardAlpha"/>
<feOffset dy="4"/>
<feGaussianBlur stdDeviation="2"/>
<feComposite in2="hardAlpha" operator="out"/>
<feColorMatrix type="matrix" values="0 0 0 0 0 0 0 0 0 0 0 0 0 0 0 0 0 0 0.25 0"/>
<feBlend mode="normal" in2="effect2_dropShadow_1070_318" result="effect3_dropShadow_1070_318"/>
<feColorMatrix in="SourceAlpha" type="matrix" values="0 0 0 0 0 0 0 0 0 0 0 0 0 0 0 0 0 0 127 0" result="hardAlpha"/>
<feOffset dy="4"/>
<feGaussianBlur stdDeviation="2"/>
<feComposite in2="hardAlpha" operator="out"/>
<feColorMatrix type="matrix" values="0 0 0 0 0 0 0 0 0 0 0 0 0 0 0 0 0 0 0.25 0"/>
<feBlend mode="normal" in2="effect3_dropShadow_1070_318" result="effect4_dropShadow_1070_318"/>
<feColorMatrix in="SourceAlpha" type="matrix" values="0 0 0 0 0 0 0 0 0 0 0 0 0 0 0 0 0 0 127 0" result="hardAlpha"/>
<feOffset dy="4"/>
<feGaussianBlur stdDeviation="2"/>
<feComposite in2="hardAlpha" operator="out"/>
<feColorMatrix type="matrix" values="0 0 0 0 0 0 0 0 0 0 0 0 0 0 0 0 0 0 0.25 0"/>
<feBlend mode="normal" in2="effect4_dropShadow_1070_318" result="effect5_dropShadow_1070_318"/>
<feColorMatrix in="SourceAlpha" type="matrix" values="0 0 0 0 0 0 0 0 0 0 0 0 0 0 0 0 0 0 127 0" result="hardAlpha"/>
<feOffset dy="4"/>
<feGaussianBlur stdDeviation="2"/>
<feComposite in2="hardAlpha" operator="out"/>
<feColorMatrix type="matrix" values="0 0 0 0 0 0 0 0 0 0 0 0 0 0 0 0 0 0 0.25 0"/>
<feBlend mode="normal" in2="effect5_dropShadow_1070_318" result="effect6_dropShadow_1070_318"/>
<feColorMatrix in="SourceAlpha" type="matrix" values="0 0 0 0 0 0 0 0 0 0 0 0 0 0 0 0 0 0 127 0" result="hardAlpha"/>
<feOffset dy="4"/>
<feGaussianBlur stdDeviation="2"/>
<feComposite in2="hardAlpha" operator="out"/>
<feColorMatrix type="matrix" values="0 0 0 0 0 0 0 0 0 0 0 0 0 0 0 0 0 0 0.25 0"/>
<feBlend mode="normal" in2="effect6_dropShadow_1070_318" result="effect7_dropShadow_1070_318"/>
<feColorMatrix in="SourceAlpha" type="matrix" values="0 0 0 0 0 0 0 0 0 0 0 0 0 0 0 0 0 0 127 0" result="hardAlpha"/>
<feOffset dy="4"/>
<feGaussianBlur stdDeviation="2"/>
<feComposite in2="hardAlpha" operator="out"/>
<feColorMatrix type="matrix" values="0 0 0 0 0 0 0 0 0 0 0 0 0 0 0 0 0 0 0.25 0"/>
<feBlend mode="normal" in2="effect7_dropShadow_1070_318" result="effect8_dropShadow_1070_318"/>
<feBlend mode="normal" in="SourceGraphic" in2="effect8_dropShadow_1070_318" result="shape"/>
</filter>
<filter id="filter6_dddddddd_1070_318" x="15.3778" y="14.5519" width="10.1652" height="10.811" filterUnits="userSpaceOnUse" color-interpolation-filters="sRGB">
<feFlood flood-opacity="0" result="BackgroundImageFix"/>
<feColorMatrix in="SourceAlpha" type="matrix" values="0 0 0 0 0 0 0 0 0 0 0 0 0 0 0 0 0 0 127 0" result="hardAlpha"/>
<feOffset dy="4"/>
<feGaussianBlur stdDeviation="2"/>
<feComposite in2="hardAlpha" operator="out"/>
<feColorMatrix type="matrix" values="0 0 0 0 0 0 0 0 0 0 0 0 0 0 0 0 0 0 0.25 0"/>
<feBlend mode="normal" in2="BackgroundImageFix" result="effect1_dropShadow_1070_318"/>
<feColorMatrix in="SourceAlpha" type="matrix" values="0 0 0 0 0 0 0 0 0 0 0 0 0 0 0 0 0 0 127 0" result="hardAlpha"/>
<feOffset dy="4"/>
<feGaussianBlur stdDeviation="2"/>
<feComposite in2="hardAlpha" operator="out"/>
<feColorMatrix type="matrix" values="0 0 0 0 0 0 0 0 0 0 0 0 0 0 0 0 0 0 0.25 0"/>
<feBlend mode="normal" in2="effect1_dropShadow_1070_318" result="effect2_dropShadow_1070_318"/>
<feColorMatrix in="SourceAlpha" type="matrix" values="0 0 0 0 0 0 0 0 0 0 0 0 0 0 0 0 0 0 127 0" result="hardAlpha"/>
<feOffset dy="4"/>
<feGaussianBlur stdDeviation="2"/>
<feComposite in2="hardAlpha" operator="out"/>
<feColorMatrix type="matrix" values="0 0 0 0 0 0 0 0 0 0 0 0 0 0 0 0 0 0 0.25 0"/>
<feBlend mode="normal" in2="effect2_dropShadow_1070_318" result="effect3_dropShadow_1070_318"/>
<feColorMatrix in="SourceAlpha" type="matrix" values="0 0 0 0 0 0 0 0 0 0 0 0 0 0 0 0 0 0 127 0" result="hardAlpha"/>
<feOffset dy="4"/>
<feGaussianBlur stdDeviation="2"/>
<feComposite in2="hardAlpha" operator="out"/>
<feColorMatrix type="matrix" values="0 0 0 0 0 0 0 0 0 0 0 0 0 0 0 0 0 0 0.25 0"/>
<feBlend mode="normal" in2="effect3_dropShadow_1070_318" result="effect4_dropShadow_1070_318"/>
<feColorMatrix in="SourceAlpha" type="matrix" values="0 0 0 0 0 0 0 0 0 0 0 0 0 0 0 0 0 0 127 0" result="hardAlpha"/>
<feOffset dy="4"/>
<feGaussianBlur stdDeviation="2"/>
<feComposite in2="hardAlpha" operator="out"/>
<feColorMatrix type="matrix" values="0 0 0 0 0 0 0 0 0 0 0 0 0 0 0 0 0 0 0.25 0"/>
<feBlend mode="normal" in2="effect4_dropShadow_1070_318" result="effect5_dropShadow_1070_318"/>
<feColorMatrix in="SourceAlpha" type="matrix" values="0 0 0 0 0 0 0 0 0 0 0 0 0 0 0 0 0 0 127 0" result="hardAlpha"/>
<feOffset dy="4"/>
<feGaussianBlur stdDeviation="2"/>
<feComposite in2="hardAlpha" operator="out"/>
<feColorMatrix type="matrix" values="0 0 0 0 0 0 0 0 0 0 0 0 0 0 0 0 0 0 0.25 0"/>
<feBlend mode="normal" in2="effect5_dropShadow_1070_318" result="effect6_dropShadow_1070_318"/>
<feColorMatrix in="SourceAlpha" type="matrix" values="0 0 0 0 0 0 0 0 0 0 0 0 0 0 0 0 0 0 127 0" result="hardAlpha"/>
<feOffset dy="4"/>
<feGaussianBlur stdDeviation="2"/>
<feComposite in2="hardAlpha" operator="out"/>
<feColorMatrix type="matrix" values="0 0 0 0 0 0 0 0 0 0 0 0 0 0 0 0 0 0 0.25 0"/>
<feBlend mode="normal" in2="effect6_dropShadow_1070_318" result="effect7_dropShadow_1070_318"/>
<feColorMatrix in="SourceAlpha" type="matrix" values="0 0 0 0 0 0 0 0 0 0 0 0 0 0 0 0 0 0 127 0" result="hardAlpha"/>
<feOffset dy="4"/>
<feGaussianBlur stdDeviation="2"/>
<feComposite in2="hardAlpha" operator="out"/>
<feColorMatrix type="matrix" values="0 0 0 0 0 0 0 0 0 0 0 0 0 0 0 0 0 0 0.25 0"/>
<feBlend mode="normal" in2="effect7_dropShadow_1070_318" result="effect8_dropShadow_1070_318"/>
<feBlend mode="normal" in="SourceGraphic" in2="effect8_dropShadow_1070_318" result="shape"/>
</filter>
<filter id="filter7_dddddddd_1070_318" x="14.3711" y="13.7074" width="8.62927" height="10.7448" filterUnits="userSpaceOnUse" color-interpolation-filters="sRGB">
<feFlood flood-opacity="0" result="BackgroundImageFix"/>
<feColorMatrix in="SourceAlpha" type="matrix" values="0 0 0 0 0 0 0 0 0 0 0 0 0 0 0 0 0 0 127 0" result="hardAlpha"/>
<feOffset dy="4"/>
<feGaussianBlur stdDeviation="2"/>
<feComposite in2="hardAlpha" operator="out"/>
<feColorMatrix type="matrix" values="0 0 0 0 0 0 0 0 0 0 0 0 0 0 0 0 0 0 0.25 0"/>
<feBlend mode="normal" in2="BackgroundImageFix" result="effect1_dropShadow_1070_318"/>
<feColorMatrix in="SourceAlpha" type="matrix" values="0 0 0 0 0 0 0 0 0 0 0 0 0 0 0 0 0 0 127 0" result="hardAlpha"/>
<feOffset dy="4"/>
<feGaussianBlur stdDeviation="2"/>
<feComposite in2="hardAlpha" operator="out"/>
<feColorMatrix type="matrix" values="0 0 0 0 0 0 0 0 0 0 0 0 0 0 0 0 0 0 0.25 0"/>
<feBlend mode="normal" in2="effect1_dropShadow_1070_318" result="effect2_dropShadow_1070_318"/>
<feColorMatrix in="SourceAlpha" type="matrix" values="0 0 0 0 0 0 0 0 0 0 0 0 0 0 0 0 0 0 127 0" result="hardAlpha"/>
<feOffset dy="4"/>
<feGaussianBlur stdDeviation="2"/>
<feComposite in2="hardAlpha" operator="out"/>
<feColorMatrix type="matrix" values="0 0 0 0 0 0 0 0 0 0 0 0 0 0 0 0 0 0 0.25 0"/>
<feBlend mode="normal" in2="effect2_dropShadow_1070_318" result="effect3_dropShadow_1070_318"/>
<feColorMatrix in="SourceAlpha" type="matrix" values="0 0 0 0 0 0 0 0 0 0 0 0 0 0 0 0 0 0 127 0" result="hardAlpha"/>
<feOffset dy="4"/>
<feGaussianBlur stdDeviation="2"/>
<feComposite in2="hardAlpha" operator="out"/>
<feColorMatrix type="matrix" values="0 0 0 0 0 0 0 0 0 0 0 0 0 0 0 0 0 0 0.25 0"/>
<feBlend mode="normal" in2="effect3_dropShadow_1070_318" result="effect4_dropShadow_1070_318"/>
<feColorMatrix in="SourceAlpha" type="matrix" values="0 0 0 0 0 0 0 0 0 0 0 0 0 0 0 0 0 0 127 0" result="hardAlpha"/>
<feOffset dy="4"/>
<feGaussianBlur stdDeviation="2"/>
<feComposite in2="hardAlpha" operator="out"/>
<feColorMatrix type="matrix" values="0 0 0 0 0 0 0 0 0 0 0 0 0 0 0 0 0 0 0.25 0"/>
<feBlend mode="normal" in2="effect4_dropShadow_1070_318" result="effect5_dropShadow_1070_318"/>
<feColorMatrix in="SourceAlpha" type="matrix" values="0 0 0 0 0 0 0 0 0 0 0 0 0 0 0 0 0 0 127 0" result="hardAlpha"/>
<feOffset dy="4"/>
<feGaussianBlur stdDeviation="2"/>
<feComposite in2="hardAlpha" operator="out"/>
<feColorMatrix type="matrix" values="0 0 0 0 0 0 0 0 0 0 0 0 0 0 0 0 0 0 0.25 0"/>
<feBlend mode="normal" in2="effect5_dropShadow_1070_318" result="effect6_dropShadow_1070_318"/>
<feColorMatrix in="SourceAlpha" type="matrix" values="0 0 0 0 0 0 0 0 0 0 0 0 0 0 0 0 0 0 127 0" result="hardAlpha"/>
<feOffset dy="4"/>
<feGaussianBlur stdDeviation="2"/>
<feComposite in2="hardAlpha" operator="out"/>
<feColorMatrix type="matrix" values="0 0 0 0 0 0 0 0 0 0 0 0 0 0 0 0 0 0 0.25 0"/>
<feBlend mode="normal" in2="effect6_dropShadow_1070_318" result="effect7_dropShadow_1070_318"/>
<feColorMatrix in="SourceAlpha" type="matrix" values="0 0 0 0 0 0 0 0 0 0 0 0 0 0 0 0 0 0 127 0" result="hardAlpha"/>
<feOffset dy="4"/>
<feGaussianBlur stdDeviation="2"/>
<feComposite in2="hardAlpha" operator="out"/>
<feColorMatrix type="matrix" values="0 0 0 0 0 0 0 0 0 0 0 0 0 0 0 0 0 0 0.25 0"/>
<feBlend mode="normal" in2="effect7_dropShadow_1070_318" result="effect8_dropShadow_1070_318"/>
<feBlend mode="normal" in="SourceGraphic" in2="effect8_dropShadow_1070_318" result="shape"/>
</filter>
<filter id="filter8_dddddddd_1070_318" x="12.42" y="14.5602" width="9.51941" height="9.9292" filterUnits="userSpaceOnUse" color-interpolation-filters="sRGB">
<feFlood flood-opacity="0" result="BackgroundImageFix"/>
<feColorMatrix in="SourceAlpha" type="matrix" values="0 0 0 0 0 0 0 0 0 0 0 0 0 0 0 0 0 0 127 0" result="hardAlpha"/>
<feOffset dy="4"/>
<feGaussianBlur stdDeviation="2"/>
<feComposite in2="hardAlpha" operator="out"/>
<feColorMatrix type="matrix" values="0 0 0 0 0 0 0 0 0 0 0 0 0 0 0 0 0 0 0.25 0"/>
<feBlend mode="normal" in2="BackgroundImageFix" result="effect1_dropShadow_1070_318"/>
<feColorMatrix in="SourceAlpha" type="matrix" values="0 0 0 0 0 0 0 0 0 0 0 0 0 0 0 0 0 0 127 0" result="hardAlpha"/>
<feOffset dy="4"/>
<feGaussianBlur stdDeviation="2"/>
<feComposite in2="hardAlpha" operator="out"/>
<feColorMatrix type="matrix" values="0 0 0 0 0 0 0 0 0 0 0 0 0 0 0 0 0 0 0.25 0"/>
<feBlend mode="normal" in2="effect1_dropShadow_1070_318" result="effect2_dropShadow_1070_318"/>
<feColorMatrix in="SourceAlpha" type="matrix" values="0 0 0 0 0 0 0 0 0 0 0 0 0 0 0 0 0 0 127 0" result="hardAlpha"/>
<feOffset dy="4"/>
<feGaussianBlur stdDeviation="2"/>
<feComposite in2="hardAlpha" operator="out"/>
<feColorMatrix type="matrix" values="0 0 0 0 0 0 0 0 0 0 0 0 0 0 0 0 0 0 0.25 0"/>
<feBlend mode="normal" in2="effect2_dropShadow_1070_318" result="effect3_dropShadow_1070_318"/>
<feColorMatrix in="SourceAlpha" type="matrix" values="0 0 0 0 0 0 0 0 0 0 0 0 0 0 0 0 0 0 127 0" result="hardAlpha"/>
<feOffset dy="4"/>
<feGaussianBlur stdDeviation="2"/>
<feComposite in2="hardAlpha" operator="out"/>
<feColorMatrix type="matrix" values="0 0 0 0 0 0 0 0 0 0 0 0 0 0 0 0 0 0 0.25 0"/>
<feBlend mode="normal" in2="effect3_dropShadow_1070_318" result="effect4_dropShadow_1070_318"/>
<feColorMatrix in="SourceAlpha" type="matrix" values="0 0 0 0 0 0 0 0 0 0 0 0 0 0 0 0 0 0 127 0" result="hardAlpha"/>
<feOffset dy="4"/>
<feGaussianBlur stdDeviation="2"/>
<feComposite in2="hardAlpha" operator="out"/>
<feColorMatrix type="matrix" values="0 0 0 0 0 0 0 0 0 0 0 0 0 0 0 0 0 0 0.25 0"/>
<feBlend mode="normal" in2="effect4_dropShadow_1070_318" result="effect5_dropShadow_1070_318"/>
<feColorMatrix in="SourceAlpha" type="matrix" values="0 0 0 0 0 0 0 0 0 0 0 0 0 0 0 0 0 0 127 0" result="hardAlpha"/>
<feOffset dy="4"/>
<feGaussianBlur stdDeviation="2"/>
<feComposite in2="hardAlpha" operator="out"/>
<feColorMatrix type="matrix" values="0 0 0 0 0 0 0 0 0 0 0 0 0 0 0 0 0 0 0.25 0"/>
<feBlend mode="normal" in2="effect5_dropShadow_1070_318" result="effect6_dropShadow_1070_318"/>
<feColorMatrix in="SourceAlpha" type="matrix" values="0 0 0 0 0 0 0 0 0 0 0 0 0 0 0 0 0 0 127 0" result="hardAlpha"/>
<feOffset dy="4"/>
<feGaussianBlur stdDeviation="2"/>
<feComposite in2="hardAlpha" operator="out"/>
<feColorMatrix type="matrix" values="0 0 0 0 0 0 0 0 0 0 0 0 0 0 0 0 0 0 0.25 0"/>
<feBlend mode="normal" in2="effect6_dropShadow_1070_318" result="effect7_dropShadow_1070_318"/>
<feColorMatrix in="SourceAlpha" type="matrix" values="0 0 0 0 0 0 0 0 0 0 0 0 0 0 0 0 0 0 127 0" result="hardAlpha"/>
<feOffset dy="4"/>
<feGaussianBlur stdDeviation="2"/>
<feComposite in2="hardAlpha" operator="out"/>
<feColorMatrix type="matrix" values="0 0 0 0 0 0 0 0 0 0 0 0 0 0 0 0 0 0 0.25 0"/>
<feBlend mode="normal" in2="effect7_dropShadow_1070_318" result="effect8_dropShadow_1070_318"/>
<feBlend mode="normal" in="SourceGraphic" in2="effect8_dropShadow_1070_318" result="shape"/>
</filter>
<filter id="filter9_dddddddd_1070_318" x="10.1855" y="14.556" width="10.0079" height="9.9458" filterUnits="userSpaceOnUse" color-interpolation-filters="sRGB">
<feFlood flood-opacity="0" result="BackgroundImageFix"/>
<feColorMatrix in="SourceAlpha" type="matrix" values="0 0 0 0 0 0 0 0 0 0 0 0 0 0 0 0 0 0 127 0" result="hardAlpha"/>
<feOffset dy="4"/>
<feGaussianBlur stdDeviation="2"/>
<feComposite in2="hardAlpha" operator="out"/>
<feColorMatrix type="matrix" values="0 0 0 0 0 0 0 0 0 0 0 0 0 0 0 0 0 0 0.25 0"/>
<feBlend mode="normal" in2="BackgroundImageFix" result="effect1_dropShadow_1070_318"/>
<feColorMatrix in="SourceAlpha" type="matrix" values="0 0 0 0 0 0 0 0 0 0 0 0 0 0 0 0 0 0 127 0" result="hardAlpha"/>
<feOffset dy="4"/>
<feGaussianBlur stdDeviation="2"/>
<feComposite in2="hardAlpha" operator="out"/>
<feColorMatrix type="matrix" values="0 0 0 0 0 0 0 0 0 0 0 0 0 0 0 0 0 0 0.25 0"/>
<feBlend mode="normal" in2="effect1_dropShadow_1070_318" result="effect2_dropShadow_1070_318"/>
<feColorMatrix in="SourceAlpha" type="matrix" values="0 0 0 0 0 0 0 0 0 0 0 0 0 0 0 0 0 0 127 0" result="hardAlpha"/>
<feOffset dy="4"/>
<feGaussianBlur stdDeviation="2"/>
<feComposite in2="hardAlpha" operator="out"/>
<feColorMatrix type="matrix" values="0 0 0 0 0 0 0 0 0 0 0 0 0 0 0 0 0 0 0.25 0"/>
<feBlend mode="normal" in2="effect2_dropShadow_1070_318" result="effect3_dropShadow_1070_318"/>
<feColorMatrix in="SourceAlpha" type="matrix" values="0 0 0 0 0 0 0 0 0 0 0 0 0 0 0 0 0 0 127 0" result="hardAlpha"/>
<feOffset dy="4"/>
<feGaussianBlur stdDeviation="2"/>
<feComposite in2="hardAlpha" operator="out"/>
<feColorMatrix type="matrix" values="0 0 0 0 0 0 0 0 0 0 0 0 0 0 0 0 0 0 0.25 0"/>
<feBlend mode="normal" in2="effect3_dropShadow_1070_318" result="effect4_dropShadow_1070_318"/>
<feColorMatrix in="SourceAlpha" type="matrix" values="0 0 0 0 0 0 0 0 0 0 0 0 0 0 0 0 0 0 127 0" result="hardAlpha"/>
<feOffset dy="4"/>
<feGaussianBlur stdDeviation="2"/>
<feComposite in2="hardAlpha" operator="out"/>
<feColorMatrix type="matrix" values="0 0 0 0 0 0 0 0 0 0 0 0 0 0 0 0 0 0 0.25 0"/>
<feBlend mode="normal" in2="effect4_dropShadow_1070_318" result="effect5_dropShadow_1070_318"/>
<feColorMatrix in="SourceAlpha" type="matrix" values="0 0 0 0 0 0 0 0 0 0 0 0 0 0 0 0 0 0 127 0" result="hardAlpha"/>
<feOffset dy="4"/>
<feGaussianBlur stdDeviation="2"/>
<feComposite in2="hardAlpha" operator="out"/>
<feColorMatrix type="matrix" values="0 0 0 0 0 0 0 0 0 0 0 0 0 0 0 0 0 0 0.25 0"/>
<feBlend mode="normal" in2="effect5_dropShadow_1070_318" result="effect6_dropShadow_1070_318"/>
<feColorMatrix in="SourceAlpha" type="matrix" values="0 0 0 0 0 0 0 0 0 0 0 0 0 0 0 0 0 0 127 0" result="hardAlpha"/>
<feOffset dy="4"/>
<feGaussianBlur stdDeviation="2"/>
<feComposite in2="hardAlpha" operator="out"/>
<feColorMatrix type="matrix" values="0 0 0 0 0 0 0 0 0 0 0 0 0 0 0 0 0 0 0.25 0"/>
<feBlend mode="normal" in2="effect6_dropShadow_1070_318" result="effect7_dropShadow_1070_318"/>
<feColorMatrix in="SourceAlpha" type="matrix" values="0 0 0 0 0 0 0 0 0 0 0 0 0 0 0 0 0 0 127 0" result="hardAlpha"/>
<feOffset dy="4"/>
<feGaussianBlur stdDeviation="2"/>
<feComposite in2="hardAlpha" operator="out"/>
<feColorMatrix type="matrix" values="0 0 0 0 0 0 0 0 0 0 0 0 0 0 0 0 0 0 0.25 0"/>
<feBlend mode="normal" in2="effect7_dropShadow_1070_318" result="effect8_dropShadow_1070_318"/>
<feBlend mode="normal" in="SourceGraphic" in2="effect8_dropShadow_1070_318" result="shape"/>
</filter>
<filter id="filter10_dddddddd_1070_318" x="7.26904" y="13.4052" width="10.5916" height="11.047" filterUnits="userSpaceOnUse" color-interpolation-filters="sRGB">
<feFlood flood-opacity="0" result="BackgroundImageFix"/>
<feColorMatrix in="SourceAlpha" type="matrix" values="0 0 0 0 0 0 0 0 0 0 0 0 0 0 0 0 0 0 127 0" result="hardAlpha"/>
<feOffset dy="4"/>
<feGaussianBlur stdDeviation="2"/>
<feComposite in2="hardAlpha" operator="out"/>
<feColorMatrix type="matrix" values="0 0 0 0 0 0 0 0 0 0 0 0 0 0 0 0 0 0 0.25 0"/>
<feBlend mode="normal" in2="BackgroundImageFix" result="effect1_dropShadow_1070_318"/>
<feColorMatrix in="SourceAlpha" type="matrix" values="0 0 0 0 0 0 0 0 0 0 0 0 0 0 0 0 0 0 127 0" result="hardAlpha"/>
<feOffset dy="4"/>
<feGaussianBlur stdDeviation="2"/>
<feComposite in2="hardAlpha" operator="out"/>
<feColorMatrix type="matrix" values="0 0 0 0 0 0 0 0 0 0 0 0 0 0 0 0 0 0 0.25 0"/>
<feBlend mode="normal" in2="effect1_dropShadow_1070_318" result="effect2_dropShadow_1070_318"/>
<feColorMatrix in="SourceAlpha" type="matrix" values="0 0 0 0 0 0 0 0 0 0 0 0 0 0 0 0 0 0 127 0" result="hardAlpha"/>
<feOffset dy="4"/>
<feGaussianBlur stdDeviation="2"/>
<feComposite in2="hardAlpha" operator="out"/>
<feColorMatrix type="matrix" values="0 0 0 0 0 0 0 0 0 0 0 0 0 0 0 0 0 0 0.25 0"/>
<feBlend mode="normal" in2="effect2_dropShadow_1070_318" result="effect3_dropShadow_1070_318"/>
<feColorMatrix in="SourceAlpha" type="matrix" values="0 0 0 0 0 0 0 0 0 0 0 0 0 0 0 0 0 0 127 0" result="hardAlpha"/>
<feOffset dy="4"/>
<feGaussianBlur stdDeviation="2"/>
<feComposite in2="hardAlpha" operator="out"/>
<feColorMatrix type="matrix" values="0 0 0 0 0 0 0 0 0 0 0 0 0 0 0 0 0 0 0.25 0"/>
<feBlend mode="normal" in2="effect3_dropShadow_1070_318" result="effect4_dropShadow_1070_318"/>
<feColorMatrix in="SourceAlpha" type="matrix" values="0 0 0 0 0 0 0 0 0 0 0 0 0 0 0 0 0 0 127 0" result="hardAlpha"/>
<feOffset dy="4"/>
<feGaussianBlur stdDeviation="2"/>
<feComposite in2="hardAlpha" operator="out"/>
<feColorMatrix type="matrix" values="0 0 0 0 0 0 0 0 0 0 0 0 0 0 0 0 0 0 0.25 0"/>
<feBlend mode="normal" in2="effect4_dropShadow_1070_318" result="effect5_dropShadow_1070_318"/>
<feColorMatrix in="SourceAlpha" type="matrix" values="0 0 0 0 0 0 0 0 0 0 0 0 0 0 0 0 0 0 127 0" result="hardAlpha"/>
<feOffset dy="4"/>
<feGaussianBlur stdDeviation="2"/>
<feComposite in2="hardAlpha" operator="out"/>
<feColorMatrix type="matrix" values="0 0 0 0 0 0 0 0 0 0 0 0 0 0 0 0 0 0 0.25 0"/>
<feBlend mode="normal" in2="effect5_dropShadow_1070_318" result="effect6_dropShadow_1070_318"/>
<feColorMatrix in="SourceAlpha" type="matrix" values="0 0 0 0 0 0 0 0 0 0 0 0 0 0 0 0 0 0 127 0" result="hardAlpha"/>
<feOffset dy="4"/>
<feGaussianBlur stdDeviation="2"/>
<feComposite in2="hardAlpha" operator="out"/>
<feColorMatrix type="matrix" values="0 0 0 0 0 0 0 0 0 0 0 0 0 0 0 0 0 0 0.25 0"/>
<feBlend mode="normal" in2="effect6_dropShadow_1070_318" result="effect7_dropShadow_1070_318"/>
<feColorMatrix in="SourceAlpha" type="matrix" values="0 0 0 0 0 0 0 0 0 0 0 0 0 0 0 0 0 0 127 0" result="hardAlpha"/>
<feOffset dy="4"/>
<feGaussianBlur stdDeviation="2"/>
<feComposite in2="hardAlpha" operator="out"/>
<feColorMatrix type="matrix" values="0 0 0 0 0 0 0 0 0 0 0 0 0 0 0 0 0 0 0.25 0"/>
<feBlend mode="normal" in2="effect7_dropShadow_1070_318" result="effect8_dropShadow_1070_318"/>
<feBlend mode="normal" in="SourceGraphic" in2="effect8_dropShadow_1070_318" result="shape"/>
</filter>
</defs>
</svg>
